<?xml version="1.0" encoding="UTF-8"?>
<svg version="1.1" xmlns="http://www.w3.org/2000/svg" width="1536" height="1024">
<path d="M0 0 C506.88 0 1013.76 0 1536 0 C1536 337.92 1536 675.84 1536 1024 C1029.12 1024 522.24 1024 0 1024 C0 686.08 0 348.16 0 0 Z " fill="#000000" transform="translate(0,0)"/>
<path d="M0 0 C1.25724884 -0.0071553 2.51449768 -0.01431061 3.80984497 -0.02168274 C5.20091223 -0.02452289 6.59197975 -0.02723463 7.98304749 -0.02983093 C9.4502122 -0.03609868 10.91737533 -0.04274575 12.38453674 -0.04974365 C17.2026001 -0.07076037 22.02066367 -0.08114806 26.83876038 -0.09111023 C28.5014097 -0.09515955 30.16405885 -0.09927652 31.82670784 -0.10346031 C39.64407448 -0.12251163 47.46143173 -0.1367393 55.27881712 -0.14507228 C64.27906901 -0.15482611 73.27907375 -0.18109717 82.27923864 -0.22157317 C89.24931821 -0.25183425 96.21932737 -0.26655083 103.1894713 -0.26985329 C107.34546006 -0.27219361 111.50118479 -0.28101937 115.65710258 -0.30631447 C119.57488655 -0.32977397 123.49223605 -0.33375761 127.41007233 -0.32355309 C128.83819343 -0.32306182 130.26633722 -0.32925964 131.69439125 -0.34310913 C147.0122796 -0.48319799 159.30370155 2.96539439 170.62391663 13.45967102 C182.31845429 25.80390523 182.3395986 40.62503831 182.30751038 56.60810852 C182.3120791 58.60531287 182.31738671 60.60251565 182.32339478 62.59971619 C182.332299 66.77380279 182.3299338 70.9476978 182.31996155 75.1217804 C182.30848074 80.44308288 182.3286838 85.76372087 182.35787868 91.08493614 C182.37631837 95.20648833 182.3759327 99.32788358 182.37024117 103.44946671 C182.37008887 105.41006527 182.37605629 107.3706751 182.38853264 109.33123398 C182.48321473 126.64775805 180.11150859 139.07214823 167.96376038 152.21357727 C156.71392603 162.909005 142.66299899 164.44808341 127.83973694 164.43769836 C126.44079738 164.44369356 125.0418611 164.45050136 123.64292908 164.45805359 C119.86583217 164.4756209 116.08882606 164.48040505 112.31169224 164.48168516 C109.94512314 164.48311269 107.57857669 164.48739364 105.21201324 164.4926796 C96.93653921 164.51114983 88.66112934 164.51935406 80.38563538 164.51777649 C72.70288517 164.51657619 65.02041638 164.53766426 57.33773732 164.56926382 C50.71573813 164.59551849 44.09383034 164.60613994 37.47177958 164.60486567 C33.5282631 164.60435869 29.58499698 164.609894 25.6415329 164.63122177 C21.92802762 164.65075992 18.21500754 164.65062402 14.50148392 164.63618851 C12.51090864 164.63314134 10.52033248 164.64966744 8.52983093 164.66706848 C-6.2988846 164.56480994 -18.9854976 160.12421774 -29.87608337 149.95967102 C-39.04895514 140.29974412 -42.43240366 129.5180548 -42.41661072 116.45307922 C-42.42332794 115.63544601 -42.43004517 114.81781281 -42.43696594 113.97540283 C-42.45580464 111.29952238 -42.45986321 108.62389472 -42.46202087 105.94795227 C-42.46845958 104.06621197 -42.47518871 102.18447265 -42.48219299 100.30273438 C-42.49413122 96.36649763 -42.49787748 92.4303484 -42.49668884 88.49409485 C-42.49648608 83.48573619 -42.52375984 78.47794764 -42.55823326 73.4697237 C-42.58063099 69.58400977 -42.58452243 65.69843014 -42.58346939 61.81265831 C-42.58580712 59.96813688 -42.59452565 58.12361069 -42.61013412 56.27915382 C-42.73718553 39.71255935 -40.85242657 25.47785949 -29.61045837 12.38154602 C-21.98706331 5.06616692 -10.47548573 0.04095944 0 0 Z " fill="#F1B003" transform="translate(696.1260833740234,358.8528289794922)"/>
<path d="M0 0 C3.46920891 1.38982175 5.98038998 3.61135436 8.72265625 6.078125 C9.8858068 7.09349354 11.04987618 8.10781045 12.21484375 9.12109375 C12.78299805 9.61915527 13.35115234 10.1172168 13.93652344 10.63037109 C16.02816448 12.44282853 18.17767927 14.17303305 20.34765625 15.890625 C24.77176482 19.39815642 29.15687693 22.95121438 33.53515625 26.515625 C37.85599712 30.03151051 42.17949789 33.54287036 46.53515625 37.015625 C52.87330591 42.07130625 59.15416572 47.19752915 65.44287109 52.31445312 C67.46836628 53.96132015 69.4955576 55.6060707 71.5234375 57.25 C83.25558795 66.76353356 94.94023564 76.33513054 106.53515625 86.015625 C104.97158126 89.77074764 102.64885407 92.14600387 99.78367615 95.00088501 C99.29673013 95.48883431 98.80978412 95.97678361 98.30808216 96.47951925 C96.67681179 98.11174149 95.03850481 99.73671122 93.40014648 101.36181641 C92.22863851 102.53112299 91.05757806 103.7008781 89.88693237 104.87104797 C87.36617403 107.3888734 84.84229177 109.90350999 82.31594658 112.41572952 C78.3240834 116.38534032 74.33930784 120.36201462 70.35548401 124.33969116 C64.05648289 130.62731122 57.75282601 136.91023977 51.44713122 143.19114625 C40.14690677 154.44702922 28.85227725 165.7085198 17.56282574 176.97520769 C13.59835548 180.93125299 9.63109409 184.88447205 5.66159236 188.83546853 C3.19737107 191.28907344 0.73515778 193.74468599 -1.72655106 196.20081139 C-2.871775 197.34255461 -4.01787017 198.4834247 -5.16488075 199.62337303 C-6.72565921 201.17474963 -8.28337075 202.72914149 -9.84034729 204.28433228 C-10.71437478 205.15484034 -11.58840227 206.0253484 -12.48891544 206.92223549 C-14.50609251 208.85751945 -14.50609251 208.85751945 -15.46484375 211.015625 C-18.371959 209.69550484 -20.49213566 208.25327113 -22.78515625 206.0390625 C-23.39866943 205.45398926 -24.01218262 204.86891602 -24.64428711 204.26611328 C-25.2863208 203.64720215 -25.92835449 203.02829102 -26.58984375 202.390625 C-32.32965807 196.93566673 -38.14823163 191.80138759 -44.46484375 187.015625 C-42.98070645 183.52908024 -41.00270323 181.37371428 -38.27734375 178.765625 C-35.46216385 176.01736697 -32.75447031 173.26989501 -30.21484375 170.265625 C-26.98145387 166.48830038 -23.49783306 163.00880598 -19.96484375 159.515625 C-16.51545653 156.10492973 -13.10364409 152.7194094 -9.96484375 149.015625 C-6.30228215 144.69380231 -2.25411186 140.7791312 1.77075195 136.79956055 C5.27936524 133.31527391 8.59684231 129.74440694 11.796875 125.97265625 C13.94776264 123.55109511 16.2312714 121.29187705 18.53515625 119.015625 C21.40441866 116.18072501 24.18002336 113.34441841 26.78515625 110.265625 C30.85090849 105.49278541 35.3519958 101.14921376 39.82519531 96.76269531 C40.4178418 96.17842773 41.01048828 95.59416016 41.62109375 94.9921875 C42.15782715 94.46705566 42.69456055 93.94192383 43.24755859 93.40087891 C44.64791628 92.0245871 44.64791628 92.0245871 45.53515625 90.015625 C44.95048584 89.74484131 44.36581543 89.47405762 43.76342773 89.19506836 C41.54853461 88.02270628 39.80635049 86.74412639 37.8828125 85.14453125 C37.19533936 84.57565186 36.50786621 84.00677246 35.79956055 83.4206543 C35.07293213 82.81261963 34.34630371 82.20458496 33.59765625 81.578125 C32.84202393 80.95139893 32.0863916 80.32467285 31.30786133 79.67895508 C27.28223536 76.33354894 23.28332911 72.95853076 19.30664062 69.55517578 C16.7312964 67.35692419 14.13471313 65.18522972 11.53515625 63.015625 C10.99987305 62.561875 10.46458984 62.108125 9.91308594 61.640625 C8.32492894 60.30562497 6.71579119 59.00152841 5.09765625 57.703125 C4.17082031 56.94386719 3.24398437 56.18460937 2.2890625 55.40234375 C-0.39982371 53.67228907 -0.39982371 53.67228907 -3.28881836 54.72436523 C-6.44533215 56.00769227 -9.15058978 57.48040186 -12.03515625 59.2890625 C-13.08614502 59.94285889 -14.13713379 60.59665527 -15.2199707 61.27026367 C-16.33202881 61.96998291 -17.44408691 62.66970215 -18.58984375 63.390625 C-20.348592 64.48744531 -22.10879252 65.58190639 -23.86915588 66.6761322 C-25.05058444 67.41055244 -26.2316046 68.14563007 -27.41221619 68.88136292 C-32.49887453 72.04838131 -37.62886805 75.13801021 -42.77734375 78.203125 C-47.68712984 81.13420814 -52.58637295 84.07990618 -57.453125 87.08203125 C-58.25113022 87.57244904 -59.04913544 88.06286682 -59.87132263 88.56814575 C-61.59443749 89.64408064 -63.30475083 90.74102998 -64.99632263 91.86590576 C-69.91210427 95.08053861 -74.54778321 97.50483977 -80.10449219 99.43237305 C-87.6876555 102.4128776 -95.07446427 105.83087159 -99.46484375 113.015625 C-104.48034874 126.14316184 -103.13067971 141.91546121 -102.74462891 155.69604492 C-102.58495999 161.43678469 -102.65188285 167.14923776 -102.78008652 172.88982582 C-104.20963541 195.21170759 -104.20963541 195.21170759 -97.10070801 215.51483154 C-91.61297894 220.7223645 -85.54282721 223.54759428 -78.43041992 225.92225647 C-73.8315372 227.61780342 -69.99020981 230.26603748 -65.96484375 233.015625 C-64.43175072 233.99357702 -62.89565096 234.966845 -61.35546875 235.93359375 C-60.57107422 236.42907715 -59.78667969 236.92456055 -58.97851562 237.43505859 C-56.24479953 239.15398614 -53.50410455 240.86134574 -50.76171875 242.56640625 C-48.74605526 243.82025063 -46.73043084 245.07415781 -44.71484375 246.328125 C-43.71598145 246.94905029 -42.71711914 247.56997559 -41.68798828 248.2097168 C-36.42967869 251.49183672 -31.20963237 254.82138923 -26.03515625 258.234375 C-24.47619629 259.26244263 -24.47619629 259.26244263 -22.88574219 260.3112793 C-20.90302917 261.62413536 -18.92428418 262.94301035 -16.95019531 264.26879883 C-12.56380136 267.17634462 -8.64331359 269.7339107 -3.46484375 271.015625 C9.72817105 258.71465803 9.72817105 258.71465803 22.53515625 246.015625 C25.38968447 247.31916703 27.51650157 248.72509556 29.78515625 250.88671875 C30.38835693 251.45632324 30.99155762 252.02592773 31.61303711 252.61279297 C32.24733643 253.22010254 32.88163574 253.82741211 33.53515625 254.453125 C34.86933664 255.7153249 36.20397886 256.9770368 37.5390625 258.23828125 C38.20566895 258.87008301 38.87227539 259.50188477 39.55908203 260.15283203 C42.50334667 262.92831253 45.48479545 265.66224112 48.47265625 268.390625 C48.98634766 268.86040771 49.50003906 269.33019043 50.02929688 269.81420898 C51.19732317 270.88199723 52.36613789 271.94892296 53.53515625 273.015625 C50.26438352 280.83313125 42.08307856 286.64938266 35.76953125 292.06640625 C32.9570399 294.51996076 30.21260706 297.04433653 27.47265625 299.578125 C26.92826904 300.08134277 26.38388184 300.58456055 25.82299805 301.10302734 C22.71836066 303.97866703 19.62517419 306.86620889 16.5390625 309.76171875 C15.87205322 310.3868335 15.20504395 311.01194824 14.51782227 311.65600586 C13.22633387 312.86734277 11.93637769 314.08031602 10.64819336 315.29516602 C8.95609903 316.88263729 7.24964689 318.45241295 5.53515625 320.015625 C4.20484375 321.23765625 4.20484375 321.23765625 2.84765625 322.484375 C0.53515625 324.015625 0.53515625 324.015625 -1.37353516 323.75073242 C-3.56509032 322.98038773 -5.28569602 322.04088507 -7.23828125 320.78515625 C-7.96917969 320.31916016 -8.70007813 319.85316406 -9.453125 319.37304688 C-10.24074219 318.86322266 -11.02835938 318.35339844 -11.83984375 317.828125 C-12.67128906 317.29638672 -13.50273437 316.76464844 -14.359375 316.21679688 C-16.14297555 315.07587557 -17.92515762 313.93273431 -19.70605469 312.78759766 C-24.28248032 309.84815542 -28.8748636 306.9338358 -33.46484375 304.015625 C-35.32943489 302.82813726 -37.19401826 301.64063732 -39.05859375 300.453125 C-44.02011751 297.2957917 -48.99058565 294.1528468 -53.96484375 291.015625 C-61.75005784 286.10555743 -69.51722761 281.16757957 -77.2800293 276.22216797 C-83.858835 272.03277713 -90.45150829 267.86593386 -97.05053711 263.70849609 C-104.94991176 258.72402289 -112.8098006 253.67792214 -120.66333008 248.62158203 C-121.66130615 247.98075684 -122.65928223 247.33993164 -123.6875 246.6796875 C-124.56156494 246.11717285 -125.43562988 245.5546582 -126.33618164 244.97509766 C-129.26818704 243.01486481 -129.26818704 243.01486481 -131.9084816 242.01689243 C-134.91809868 240.63217661 -137.08238207 239.33152149 -139.46484375 237.015625 C-141.01284203 232.28999594 -140.90666363 227.57236728 -140.86987305 222.64770508 C-140.89490397 221.17692791 -140.92407025 219.70621619 -140.95704651 218.2355957 C-141.03242779 214.24924826 -141.04366901 210.26518338 -141.03861976 206.27821565 C-141.03921198 202.94343232 -141.06861154 199.60913372 -141.0971244 196.27449149 C-141.16293938 188.40036403 -141.17407664 180.52741091 -141.15307617 172.65307617 C-141.13257649 164.54858474 -141.2115694 156.44931087 -141.33876103 148.34590799 C-141.44420358 141.37382565 -141.48334631 134.40341732 -141.47105151 127.43055266 C-141.46461403 123.27202325 -141.48347898 119.11761243 -141.56790733 114.9598484 C-142.04034465 89.78300563 -142.04034465 89.78300563 -137.79743004 83.57657242 C-133.89382789 79.81974304 -129.57081022 77.64361747 -124.5160656 75.80993843 C-121.54921881 74.66105916 -119.0258852 72.96185695 -116.3984375 71.1875 C-114.56729846 70.04544321 -112.73526285 68.90482273 -110.90234375 67.765625 C-108.84630885 66.48444771 -106.79032067 65.20319547 -104.734375 63.921875 C-103.70135254 63.27863281 -102.66833008 62.63539063 -101.60400391 61.97265625 C-98.47560299 60.02233258 -95.3505172 58.06681138 -92.2265625 56.109375 C-83.29141748 50.51190475 -74.35191119 44.9260774 -65.33984375 39.453125 C-55.86144824 33.69297018 -46.52333301 27.71638655 -37.17675781 21.74560547 C-31.38677584 18.05206817 -25.58312492 14.38049386 -19.765625 10.73046875 C-17.01328193 9.00222488 -14.28329891 7.24635862 -11.5703125 5.45703125 C-10.68001343 4.88057861 -10.68001343 4.88057861 -9.77172852 4.29248047 C-8.21812647 3.28621362 -6.67310515 2.26673181 -5.12890625 1.24609375 C-2.46484375 0.015625 -2.46484375 0.015625 0 0 Z " fill="#F1AF03" transform="translate(380.46484375,339.984375)"/>
<path d="M0 0 C6.33454698 2.7443438 12.1295656 6.38885053 17.98583984 10.01318359 C22.60567016 12.8600901 27.2524729 15.66272676 31.89352417 18.47485352 C34.9382229 20.32078466 37.98077875 22.17024022 41.0234375 24.01953125 C46.51763439 27.35843897 52.0130022 30.69541087 57.50915527 34.03109741 C62.74206523 37.20706458 67.97420526 40.38429784 73.20605469 43.56201172 C75.3445661 44.86077858 77.48322915 46.1592958 79.62207031 47.45751953 C89.9015023 53.69753152 100.16278908 59.9629823 110.375 66.3125 C116.43516684 70.07913193 122.52100435 73.78508695 128.6875 77.375 C138.32051011 82.98537008 147.79804133 88.84748797 157.2734375 94.71875 C160.98986469 97.02138025 164.71715187 99.29953704 168.4765625 101.53125 C179.13074109 107.89541904 186.23454576 113.22282761 189.5 125.5625 C189.87822482 128.44069447 189.91109292 131.26336654 189.88768005 134.1635437 C189.89575836 135.38850231 189.89575836 135.38850231 189.90399987 136.63820755 C189.91819853 139.34864362 189.91119592 142.05858568 189.90405273 144.76904297 C189.90976057 146.72294504 189.91672642 148.67684378 189.92485046 150.6307373 C189.94275199 155.92007877 189.94161903 161.20925406 189.93590808 166.4986167 C189.93281165 170.92192781 189.93891379 175.34520721 189.94494683 179.7685138 C189.9589808 190.20784477 189.95744034 200.64709388 189.94604492 211.08642578 C189.93456673 221.83886559 189.94863702 232.59105589 189.9754414 243.34346282 C189.99762787 252.59131588 190.00422907 261.83909078 189.99836498 271.08696854 C189.99500105 276.60316388 189.99737303 282.11919932 190.01461601 287.63537216 C190.03012985 292.82459809 190.02608032 298.01345563 190.00731087 303.20266724 C190.00363717 305.10087135 190.00669767 306.99910302 190.01719666 308.89728165 C190.13448658 331.86663414 190.13448658 331.86663414 181.75 340.9375 C178.10902406 344.2320398 174.12994017 347.78250199 169.5 349.5625 C165.69261845 349.30565283 163.83767887 347.27497484 161.25 344.625 C160.19039062 343.55958984 160.19039062 343.55958984 159.109375 342.47265625 C157.5 340.5625 157.5 340.5625 157.5 338.5625 C156.84 338.5625 156.18 338.5625 155.5 338.5625 C155.5 337.9025 155.5 337.2425 155.5 336.5625 C158.18380235 334.81613847 160.91335946 333.22790911 163.703125 331.66015625 C167.17149182 329.63308853 169.17100508 328.36765409 170.5 324.5625 C170.69165495 321.88521391 170.77415824 319.31290276 170.76069641 316.63624573 C170.76452196 315.83189604 170.76834751 315.02754636 170.77228898 314.19882244 C170.7826175 311.50040196 170.77862712 308.80219433 170.7746582 306.10375977 C170.77900475 304.17041832 170.78418771 302.2370786 170.79014587 300.30374146 C170.80355305 295.04965857 170.80411265 289.79564754 170.80158257 284.54155087 C170.80051406 280.15769651 170.80539314 275.77385677 170.810188 271.39000553 C170.82128906 261.04929925 170.82171717 250.70862928 170.81567383 240.36791992 C170.80963202 229.69446495 170.82194898 219.02114173 170.8432439 208.34770924 C170.86084712 199.18838203 170.86686329 190.02909681 170.86360615 180.8697533 C170.86179117 175.39729445 170.864451 169.9249296 170.87832069 164.45248604 C170.89087364 159.30690411 170.88897894 154.16152793 170.87590981 149.01594925 C170.87353897 147.12651564 170.87629678 145.23706767 170.88453293 143.34765053 C170.89495928 140.77010602 170.88693304 138.19325713 170.8742218 135.61573792 C170.88159609 134.86651379 170.88897037 134.11728966 170.89656812 133.34536177 C170.85042932 128.90394099 170.19190861 126.11804586 167.5 122.5625 C165.92785261 121.13626125 165.92785261 121.13626125 164.10546875 120.08203125 C163.41227539 119.64930908 162.71908203 119.21658691 162.00488281 118.77075195 C161.24014648 118.31015381 160.47541016 117.84955566 159.6875 117.375 C158.46885254 116.62319458 158.46885254 116.62319458 157.22558594 115.85620117 C154.32624197 114.07609316 151.41439039 112.31786493 148.5 110.5625 C147.30348975 109.8399405 146.10704048 109.11728001 144.91064453 108.39453125 C137.96396087 104.20108888 131.00485246 100.02871623 124.03762817 95.86950684 C114.27027998 90.03855606 104.50423957 84.20608381 94.8125 78.25 C88.39658364 74.31766417 81.95711271 70.42679044 75.5 66.5625 C69.14710243 62.76053985 62.8119131 58.93212557 56.5 55.0625 C49.47298469 50.75487244 42.414183 46.50291833 35.34106445 42.27148438 C27.62677345 37.65112839 19.94746557 32.97405153 12.27661133 28.28198242 C9.68861027 26.70175926 7.09542424 25.13049168 4.5 23.5625 C3.81373535 23.140896 3.1274707 22.71929199 2.42041016 22.28491211 C-1.99800922 19.63796791 -5.42161152 18.55589085 -10.5 19.5625 C-16.45673936 21.77964865 -21.71370259 24.94402246 -27.125 28.25 C-27.93839844 28.74177734 -28.75179687 29.23355469 -29.58984375 29.74023438 C-36.58306426 33.97640761 -43.53911108 38.27350401 -50.5 42.5625 C-52.5142399 43.80221823 -54.52856119 45.04180422 -56.54296875 46.28125 C-57.54005859 46.89484375 -58.53714844 47.5084375 -59.56445312 48.140625 C-71.30761719 55.3671875 -71.30761719 55.3671875 -83.05078125 62.59375 C-84.11643311 63.24956055 -85.18208496 63.90537109 -86.2800293 64.58105469 C-88.43114436 65.90476762 -90.58234917 67.22833473 -92.73364258 68.55175781 C-98.22819088 71.93212736 -103.72105864 75.31517654 -109.2109375 78.703125 C-119.67747356 85.15929778 -130.15725607 91.58788991 -140.71289062 97.89746094 C-147.65083047 102.04618043 -154.57069162 106.22426165 -161.48297119 110.41555786 C-162.73051272 111.17181376 -163.97834959 111.92758269 -165.22650146 112.68283081 C-166.98254224 113.74555408 -168.7374996 114.81004482 -170.4921875 115.875 C-171.50651855 116.48988281 -172.52084961 117.10476563 -173.56591797 117.73828125 C-174.53416504 118.34027344 -175.50241211 118.94226563 -176.5 119.5625 C-177.57266113 120.21605469 -178.64532227 120.86960937 -179.75048828 121.54296875 C-182.62260928 123.65255718 -183.33918284 124.30735463 -184.5 127.5625 C-184.69374379 130.23958017 -184.77845759 132.81211846 -184.76742554 135.48875427 C-184.77195665 136.29310396 -184.77648776 137.09745364 -184.78115618 137.92617756 C-184.79382843 140.62458999 -184.79217801 143.32280132 -184.79052734 146.02124023 C-184.79651077 147.95458232 -184.80331589 149.88792201 -184.81088257 151.82125854 C-184.82856717 157.07533482 -184.83323894 162.32934597 -184.83451414 167.58344913 C-184.8364121 171.96730459 -184.84376831 176.35114485 -184.85085833 180.73499447 C-184.86714871 191.0756975 -184.87202663 201.41636569 -184.87060547 211.75708008 C-184.86940337 222.43056802 -184.89051732 233.10385396 -184.9220928 243.77729076 C-184.94822528 252.93661911 -184.95897406 262.09588135 -184.95769465 271.2552467 C-184.95718419 276.72774132 -184.9629139 282.20005641 -184.98405075 287.67251396 C-185.0033825 292.81813939 -185.00359232 297.96341308 -184.98901749 303.10905075 C-184.98692209 304.99848887 -184.99167356 306.88794871 -185.0037384 308.77734947 C-185.01913367 311.35506988 -185.00992128 313.93156872 -184.99447632 316.50926208 C-185.00476344 317.25848621 -185.01505057 318.00771034 -185.02564943 318.77963823 C-184.96091867 323.66187876 -183.95635985 326.12584964 -180.5 329.5625 C-178.34945797 331.14955277 -178.34945797 331.14955277 -175.97265625 332.39453125 C-175.10463379 332.87881592 -174.23661133 333.36310059 -173.34228516 333.86206055 C-171.9662915 334.61096558 -171.9662915 334.61096558 -170.5625 335.375 C-168.65404542 336.43848623 -166.74649005 337.50358773 -164.83984375 338.5703125 C-163.91800293 339.08368164 -162.99616211 339.59705078 -162.04638672 340.12597656 C-157.88803044 342.47187957 -153.84674909 344.9858131 -149.79907227 347.51757812 C-146.41214355 349.6169576 -143.00458198 351.67947221 -139.5859375 353.7265625 C-138.93701538 354.115522 -138.28809326 354.50448151 -137.61950684 354.90522766 C-131.09556303 358.81166016 -124.55269713 362.68598787 -118.00939941 366.55987549 C-105.10417624 374.20336455 -92.25357965 381.92940834 -79.45800781 389.75537109 C-73.85278955 393.17975419 -68.23926557 396.59047739 -62.625 400 C-61.74563782 400.53403442 -61.74563782 400.53403442 -60.84851074 401.07885742 C-52.2447421 406.30242587 -43.62903676 411.505768 -35 416.6875 C-33.52490967 417.57393188 -33.52490967 417.57393188 -32.02001953 418.47827148 C-29.18351668 420.17896411 -26.34230832 421.87153094 -23.5 423.5625 C-22.42500244 424.20759521 -21.35000488 424.85269043 -20.24243164 425.51733398 C-19.17371826 426.15227783 -18.10500488 426.78722168 -17.00390625 427.44140625 C-16.03525635 428.01963135 -15.06660645 428.59785645 -14.06860352 429.19360352 C-10.45257892 431.12070645 -8.5153722 431.51158797 -4.5 430.5625 C2.97383768 426.88110286 10.09134292 422.47797834 17.1875 418.125 C18.17298828 417.52300781 19.15847656 416.92101562 20.17382812 416.30078125 C28.31182497 411.31812411 36.40188614 406.26002501 44.4855957 401.18994141 C54.24095396 395.07920601 64.05050834 389.05567695 73.92089844 383.13232422 C75.70985959 382.04343552 77.48312084 380.9284938 79.24316406 379.79345703 C80.12456055 379.23384277 81.00595703 378.67422852 81.9140625 378.09765625 C83.09282959 377.33207397 83.09282959 377.33207397 84.29541016 376.55102539 C86.5 375.5625 86.5 375.5625 88.61181641 375.76123047 C91.67008979 377.05903927 93.87791041 379.36186465 96.25 381.625 C96.75660156 382.09744141 97.26320313 382.56988281 97.78515625 383.05664062 C99.02949613 384.21880711 100.26558064 385.38980161 101.5 386.5625 C96.70493307 390.72502619 91.30256706 393.81237185 85.875 397.0625 C78.63970448 401.42814805 71.43695076 405.83066208 64.3125 410.375 C53.57200165 417.20859863 42.67227842 423.77786909 31.77807617 430.36207581 C27.78788031 432.77610731 23.81085422 435.21072841 19.83984375 437.65625 C18.79989258 438.2951416 17.75994141 438.9340332 16.68847656 439.59228516 C14.74675477 440.78619447 12.80715199 441.98355988 10.87011719 443.18505859 C2.97551156 448.02901103 -3.95846634 452.23146942 -13.5 450.5625 C-17.22587106 449.04003941 -20.50025625 446.99214315 -23.875 444.8125 C-24.82979248 444.22194824 -25.78458496 443.63139648 -26.76831055 443.02294922 C-28.73889539 441.8038931 -30.70433843 440.57648612 -32.66455078 439.34082031 C-36.8404135 436.72182737 -41.07701975 434.20841452 -45.3125 431.6875 C-46.96537148 430.69488865 -48.61770445 429.7013801 -50.26953125 428.70703125 C-53.95196083 426.49195683 -57.63717205 424.28159938 -61.32421875 422.07421875 C-72.99697613 415.08381715 -84.64526619 408.05490381 -96.27050781 400.98590088 C-107.70208621 394.03566218 -119.16825989 387.14410916 -130.64697266 380.27197266 C-133.34303224 378.65655171 -136.03720024 377.03803779 -138.73046875 375.41796875 C-147.40399272 370.20184188 -156.09613859 365.01926572 -164.8125 359.875 C-165.73514648 359.32948486 -166.65779297 358.78396973 -167.60839844 358.22192383 C-171.72493463 355.78818577 -175.84414779 353.35981347 -179.9765625 350.953125 C-190.95165043 344.53291546 -198.85199718 339.51283676 -203.05030441 326.91063213 C-203.70507693 323.49166956 -203.64443414 320.09281985 -203.64044189 316.62519836 C-203.64341302 315.81958739 -203.64638414 315.01397642 -203.6494453 314.18395299 C-203.65812545 311.48110464 -203.65963997 308.77830063 -203.66113281 306.07543945 C-203.66576151 304.13873703 -203.67078625 302.20203553 -203.67617798 300.26533508 C-203.68930003 295.00067309 -203.69574671 289.73602384 -203.70018864 284.47134805 C-203.70312003 281.18136375 -203.70722499 277.89138292 -203.71169281 274.60140038 C-203.725368 264.30550824 -203.73503422 254.00962407 -203.7388947 243.71372348 C-203.7433739 231.83318694 -203.76091535 219.95276555 -203.7898953 208.07226402 C-203.81152307 198.8865537 -203.82159959 189.70087574 -203.82293582 180.51514024 C-203.82398317 175.0302492 -203.82987611 169.54546639 -203.84775543 164.06060219 C-203.86425471 158.89860448 -203.86638254 153.73679613 -203.85761642 148.57478142 C-203.85684701 146.68379839 -203.86117607 144.79280511 -203.87107468 142.90184784 C-203.88382999 140.31258154 -203.8778981 137.72398233 -203.86749268 135.13471985 C-203.87554908 134.39325614 -203.88360548 133.65179243 -203.89190602 132.88786012 C-203.81775745 124.95338235 -201.46648682 117.80608344 -196.5 111.5625 C-190.8464157 106.278865 -184.17638389 102.57700573 -177.5625 98.625 C-176.30337606 97.86725539 -175.04459145 97.10894668 -173.78613281 96.35009766 C-171.23716126 94.81370783 -168.6868405 93.27960141 -166.13525391 91.74755859 C-160.99669101 88.66091043 -155.87145769 85.55243316 -150.75 82.4375 C-149.81945801 81.87200439 -148.88891602 81.30650879 -147.93017578 80.72387695 C-141.23049602 76.64240278 -134.57921005 72.4874623 -127.9375 68.3125 C-117.40795922 61.69625357 -106.76864836 55.27414338 -96.08959961 48.90332031 C-89.21005456 44.79814404 -82.36107506 40.64962927 -75.54418945 36.44067383 C-70.05796188 33.05583553 -64.5475284 29.71079831 -59.03833008 26.36352539 C-54.02723819 23.318573 -49.01857684 20.2699047 -44.01927185 17.2056427 C-41.52141408 15.6753272 -39.02158237 14.14825371 -36.52151489 12.62155151 C-35.31594782 11.88431346 -34.11122928 11.14568573 -32.90744019 10.4055481 C-10.1263379 -3.59751478 -10.1263379 -3.59751478 0 0 Z " fill="#EDAD03" transform="translate(388.5,276.4375)"/>
<path d="M0 0 C1.55181473 -0.0129007 1.55181473 -0.0129007 3.13497925 -0.02606201 C4.27471191 -0.03032196 5.41444458 -0.03458191 6.5887146 -0.03897095 C7.78559906 -0.04714844 8.98248352 -0.05532593 10.21563721 -0.06375122 C14.1920437 -0.08864231 18.16841206 -0.10528414 22.14486694 -0.11953735 C23.51478456 -0.12489766 24.88470211 -0.13027517 26.2546196 -0.13566971 C31.95585276 -0.15730358 37.6570831 -0.17603765 43.35834694 -0.1872921 C51.52110768 -0.20351235 59.68339095 -0.23663664 67.8459717 -0.29369295 C73.58876468 -0.33246074 79.33143036 -0.3519331 85.07435071 -0.35721266 C88.50205092 -0.36085822 91.92924196 -0.37279212 95.35680008 -0.4053154 C99.18707744 -0.43692922 103.01615354 -0.43700807 106.8465271 -0.42959595 C107.97411438 -0.44600128 109.10170166 -0.46240662 110.26345825 -0.47930908 C117.07648521 -0.42540886 121.93072038 0.5118927 127.10580444 5.15390015 C132.60375289 11.89871495 131.67103873 20.46546083 131.60189819 28.7124939 C131.60205345 30.22649708 131.60354687 31.74050066 131.60630798 33.25450134 C131.60768724 36.41751825 131.59521576 39.58007913 131.57235718 42.74301147 C131.54399804 46.77549722 131.54670945 50.80722487 131.55944729 54.8397665 C131.56643935 57.96356048 131.55857483 61.08718264 131.54619026 64.21095467 C131.54170819 65.69674073 131.54131025 67.18254546 131.54525566 68.66833305 C131.57114734 86.99764399 131.57114734 86.99764399 126.79573059 92.72517395 C120.27396374 98.65572084 112.99273041 98.44773562 104.70370483 98.42855835 C102.99287468 98.43622475 102.99287468 98.43622475 101.2474823 98.44404602 C97.48275484 98.45792948 93.71821069 98.45698622 89.95346069 98.4546814 C87.33321566 98.45856883 84.71297125 98.4629036 82.09272766 98.46766663 C76.60268533 98.4758698 71.11269448 98.474978 65.62265015 98.46957397 C59.28782636 98.46353405 52.95322468 98.47584933 46.61843878 98.49714404 C40.510198 98.5169178 34.4020607 98.51992987 28.29379082 98.51640892 C25.70106929 98.51692209 23.10834422 98.52215901 20.51564217 98.53222084 C16.8893539 98.54456741 13.26357874 98.53780373 9.63729858 98.5262146 C8.03410767 98.53768021 8.03410767 98.53768021 6.39852905 98.54937744 C-0.91592256 98.49775265 -5.84195285 97.65118963 -11.64419556 92.90390015 C-15.97316812 87.61293368 -17.26883123 82.88604432 -17.28237915 76.13632202 C-17.28763611 75.47354752 -17.29289307 74.81077301 -17.29830933 74.12791443 C-17.31140339 71.95924597 -17.3028098 69.79132474 -17.29263306 67.62265015 C-17.29465686 66.10242575 -17.29757084 64.5822023 -17.30133057 63.0619812 C-17.30573955 59.88468124 -17.29936917 56.70763529 -17.28530884 53.53036499 C-17.26821756 49.47189868 -17.27806645 45.41402769 -17.29602623 41.35558319 C-17.30690285 38.2190203 -17.30340004 35.08259692 -17.29564285 31.94602966 C-17.29365154 30.45020984 -17.29606229 28.95437707 -17.30308151 27.45857239 C-17.3107605 25.36253641 -17.29900382 23.26744452 -17.28237915 21.17147827 C-17.27999237 19.9823584 -17.27760559 18.79323853 -17.27514648 17.56808472 C-16.74544186 12.82072954 -15.38441969 8.82003047 -12.14028931 5.19296265 C-11.54345337 4.72632202 -10.94661743 4.2596814 -10.33169556 3.77890015 C-9.73228149 3.29679077 -9.13286743 2.8146814 -8.51528931 2.31796265 C-5.53751284 0.17970388 -3.62537194 0.02239194 0 0 Z " fill="#010000" transform="translate(708.8941955566406,391.8460998535156)"/>
<path d="M0 0 C7.70175023 -0.16262956 15.40332114 -0.28678947 23.10640049 -0.3626852 C26.68393931 -0.39912449 30.26029836 -0.4484948 33.8371582 -0.52807617 C37.29320182 -0.60448286 40.74811549 -0.6460602 44.20493889 -0.6641407 C46.15666399 -0.68325353 48.10793809 -0.73784627 50.05897522 -0.79307556 C59.98979064 -0.79744844 59.98979064 -0.79744844 64.23510742 3.4284668 C65.17963074 4.60089835 66.10524794 5.78915782 67 7 C68.23370287 8.10185677 69.48022563 9.18991314 70.75 10.25 C74.1583848 13.18279622 77.34399164 16.30072901 80.5 19.5 C83.57389519 22.61580242 86.66702214 25.65877297 90 28.5 C93.85043015 31.7823339 97.38145579 35.35254849 100.93139648 38.95092773 C104.15366448 42.20000607 107.49340645 45.22443863 110.97265625 48.19140625 C114.23569483 51.10236359 117.26300441 54.24308561 120.3125 57.375 C122.43132579 59.44455078 124.57137354 61.38215475 126.8125 63.3125 C131.80079941 67.63631675 136.38030863 72.32914278 141 77.0390625 C144.16834193 80.24453344 147.35371178 83.35290196 150.78125 86.28125 C156.85497186 91.51271746 162.38330351 97.32736651 168.00927734 103.02978516 C173.19276615 108.27728845 178.38581276 113.42584054 183.99804688 118.22070312 C189.10113332 122.75622679 193.78906281 127.75556376 198.578125 132.6171875 C202.93343087 137.01257287 207.33884785 141.23883203 212.03515625 145.26660156 C215.67618567 148.47874233 219.07748095 151.93346696 222.5 155.375 C223.22703125 156.09816406 223.9540625 156.82132813 224.703125 157.56640625 C225.38890625 158.25347656 226.0746875 158.94054687 226.78125 159.6484375 C227.40064453 160.26895996 228.02003906 160.88948242 228.65820312 161.52880859 C230 163 230 163 230 164 C222.13477827 164.1268844 214.26982095 164.21438779 206.40380859 164.2746582 C203.72819073 164.29696178 201.05391007 164.333886 198.37841797 164.37719727 C194.53075234 164.4379198 190.68399523 164.4662284 186.8359375 164.48828125 C185.64197357 164.51408768 184.44800964 164.5398941 183.21786499 164.56648254 C173.94536073 164.56960718 173.94536073 164.56960718 170.19775391 161.59448242 C168 159 168 159 168 157 C167.34 157 166.68 157 166 157 C164.7734375 155.71484375 164.7734375 155.71484375 163.375 153.9375 C161.1782029 151.26547359 158.91675302 148.9647393 156.27539062 146.73413086 C152.06789677 143.10381113 148.1315068 139.25982307 144.21875 135.31640625 C143.51979614 134.61603745 142.82084229 133.91566864 142.10070801 133.19407654 C139.89808461 130.98591542 137.69898919 128.77427963 135.5 126.5625 C133.99502492 125.05250186 132.48981865 123.5427341 130.984375 122.03320312 C127.32024171 118.35812359 123.6592652 114.67992644 120 111 C117.02183282 112.42432416 115.02068318 113.77903265 112.75 116.1875 C110.2797959 118.73670849 107.75845477 121.12819493 105.0625 123.4375 C102.25423653 125.85617779 99.60029407 128.35899683 97 131 C94.46027814 133.5792506 91.87548686 136.02217389 89.125 138.375 C85.01918892 141.90116716 81.25873742 145.72579422 77.45703125 149.57421875 C74.70300568 152.29321697 71.84342112 154.83711319 68.88671875 157.33203125 C66.84875243 159.00550729 66.84875243 159.00550729 65.17822266 161.57373047 C60.21416665 165.36331325 55.33439441 164.61897157 49.26171875 164.48828125 C48.02581497 164.48120651 46.78991119 164.47413177 45.51655579 164.46684265 C42.24288458 164.44362714 38.9704584 164.39876777 35.69720459 164.34332275 C32.35228951 164.29202193 29.00732004 164.26973285 25.66210938 164.24414062 C19.10758763 164.18904144 12.5538956 164.10538961 6 164 C6.93621737 162.89190567 7.87474317 161.78576149 8.81420898 160.68041992 C9.5977903 159.75612434 9.5977903 159.75612434 10.39720154 158.81315613 C12.78088922 156.11662376 15.3894413 153.71692625 18.0625 151.3125 C19.20973475 150.26703608 20.35686727 149.22145996 21.50390625 148.17578125 C22.37426514 147.3861499 22.37426514 147.3861499 23.26220703 146.58056641 C26.02288407 144.06966122 28.76069966 141.53417462 31.5 139 C34.70032788 136.04382578 37.90199593 133.08914876 41.109375 130.140625 C47.21206853 124.52637591 53.27659853 118.87353375 59.3125 113.1875 C60.02349854 112.51775146 60.73449707 111.84800293 61.46704102 111.15795898 C64.38613409 108.40734473 67.304702 105.65617794 70.22167969 102.90332031 C72.37546723 100.87146325 74.53131192 98.84180906 76.6875 96.8125 C77.65780151 95.89537231 77.65780151 95.89537231 78.64770508 94.9597168 C81.49760118 92.2800306 84.36076354 89.67007505 87.39453125 87.19921875 C90.03065573 85.26788193 90.03065573 85.26788193 91 83 C90.41734375 82.74605469 89.8346875 82.49210937 89.234375 82.23046875 C86.75811967 80.86679667 85.19479374 79.35774797 83.25 77.3125 C80.72296354 74.72078619 78.18699116 72.22913949 75.4375 69.875 C71.35063941 66.36272773 67.42854859 62.68682872 63.5 59 C59.08524112 54.85985363 54.6517106 50.76788883 50.06640625 46.81640625 C44.94924153 42.3183314 39.99559793 37.63228171 35 33 C26.01164977 24.67184754 26.01164977 24.67184754 16.9375 16.4375 C13.07394874 12.96857835 9.21658616 9.49322504 5.375 6 C4.84124756 5.51845459 4.30749512 5.03690918 3.75756836 4.54077148 C2.48586962 3.38120147 1.24013984 2.1932617 0 1 C0 0.67 0 0.34 0 0 Z " fill="#F0AF03" transform="translate(1114,359)"/>
<path d="M0 0 C12.87 0 25.74 0 39 0 C39 43.23 39 86.46 39 131 C87.18 131 135.36 131 185 131 C179.98339555 142.14800988 174.79575049 153.23646337 169 164 C113.23 164 57.46 164 0 164 C0 109.88 0 55.76 0 0 Z " fill="#F1AF03" transform="translate(917,359)"/>
<path d="M0 0 C3.93214301 1.58939426 6.33020346 4.16342502 9.25 7.1875 C12.31190375 10.35117223 15.37760007 13.36054367 18.72167969 16.22387695 C22.82503695 19.79764697 26.67878897 23.56624005 30.5 27.4375 C31.17998047 28.12126709 31.85996094 28.80503418 32.56054688 29.50952148 C35.43225143 32.39737773 38.29788438 35.29123075 41.1640625 38.18457031 C43.27392787 40.31265725 45.38689645 42.43762917 47.5 44.5625 C48.13357422 45.20437256 48.76714844 45.84624512 49.41992188 46.50756836 C52.43713061 49.5410029 55.49463536 52.46436478 58.74536133 55.24734497 C62.93085228 58.89236967 66.87546809 62.7342826 70.79296875 66.66357422 C71.89199776 67.75997475 71.89199776 67.75997475 73.01322937 68.87852478 C75.40715545 71.26808894 77.79745217 73.6612448 80.1875 76.0546875 C81.85743855 77.7239519 83.52752549 79.39306787 85.19775391 81.06204224 C88.68245374 84.54527322 92.16535163 88.03029327 95.64697266 91.51660156 C100.1205743 95.99593112 104.59869201 100.47071482 109.07814026 104.9441967 C112.5198691 108.38232438 115.95922801 111.82281483 119.39785767 115.2640419 C121.04943338 116.91628652 122.70175726 118.56778361 124.35482788 120.21853256 C126.6530347 122.51421684 128.94804071 124.81305239 131.2421875 127.11279297 C131.93092453 127.79950577 132.61966156 128.48621857 133.32926941 129.19374084 C133.94876968 129.81606094 134.56826996 130.43838104 135.20654297 131.07955933 C136.02057083 131.89415273 136.02057083 131.89415273 136.8510437 132.72520256 C138 134 138 134 138 135 C130.45652529 135.20342887 122.91376162 135.3431837 115.36816406 135.43945312 C112.80344206 135.47959773 110.23890215 135.53412723 107.67480469 135.60351562 C103.98066236 135.70095615 100.28894625 135.74601945 96.59375 135.78125 C95.4538562 135.82254028 94.3139624 135.86383057 93.13952637 135.90637207 C85.28637113 135.91076372 85.28637113 135.91076372 81.5769043 133.28442383 C79.5712237 131.27828167 77.79908551 129.19019672 76 127 C74.73137931 125.84907458 73.44232053 124.71984902 72.125 123.625 C68.0149992 120.09523461 64.25100477 116.26630758 60.4453125 112.4140625 C57.70876521 109.71248706 54.85020634 107.20921265 51.9296875 104.7109375 C49.86691479 102.88200137 47.9340928 100.96419542 46 99 C43.48044611 96.44130741 40.91881218 94.01829389 38.1875 91.6875 C34.79804306 88.77749473 31.63549931 85.67838527 28.5 82.5 C25.50823209 79.4677001 22.50847937 76.49845652 19.25 73.75 C14.38901585 69.61213746 9.9862796 65.01053599 5.49804688 60.47851562 C1.7722359 56.73032741 -2.00559594 53.14310603 -6.046875 49.734375 C-8.64072738 47.43103409 -11.0648832 44.96815213 -13.5 42.5 C-17.83399041 38.11765265 -22.28024622 33.96242939 -27 30 C-25.40247219 26.01295714 -22.60944346 23.3698311 -19.58984375 20.4296875 C-19.06234024 19.90738556 -18.53483673 19.38508362 -17.99134827 18.84695435 C-16.3114287 17.18479666 -14.62495728 15.52950195 -12.9375 13.875 C-11.24736984 12.21249027 -9.5587228 10.54854046 -7.87294006 8.88162231 C-6.82509029 7.8460278 -5.77457886 6.81311817 -4.72117615 5.78317261 C-2.01638571 3.15409686 -2.01638571 3.15409686 0 0 Z " fill="#F0AF03" transform="translate(427,524)"/>
<path d="M0 0 C1.16931564 0.00707474 2.33863129 0.01414948 3.54338074 0.0214386 C7.27306455 0.04939631 11.00123972 0.11214253 14.73046875 0.17578125 C17.26104601 0.2008621 19.79164683 0.22367564 22.32226562 0.24414062 C28.52134688 0.29922779 34.71955003 0.38287003 40.91796875 0.48828125 C39.97960412 1.59934704 39.03887065 2.70841241 38.09716797 3.81665039 C37.57355682 4.43447891 37.04994568 5.05230743 36.51046753 5.68885803 C34.20044115 8.2990422 31.64308165 10.61296452 29.04296875 12.92578125 C23.04390578 18.35342091 17.31644918 24.01888151 11.65087891 29.79272461 C7.84028682 33.6535202 3.91246502 37.28375219 -0.19604492 40.82495117 C-2.95339995 43.25677768 -5.51692098 45.8569296 -8.08203125 48.48828125 C-11.94201115 52.40148556 -15.86876427 56.12526101 -20.05859375 59.6875 C-24.25480231 63.4219636 -28.14787637 67.48157024 -32.08203125 71.48828125 C-36.01417426 69.89888699 -38.41223471 67.32485623 -41.33203125 64.30078125 C-45.21692221 60.32216868 -49.1932744 56.53789183 -53.421875 52.92578125 C-55.40748705 51.20647482 -57.26345524 49.38263126 -59.08203125 47.48828125 C-57.66663782 44.26432955 -55.96788197 42.13161333 -53.45703125 39.67578125 C-52.82539062 39.05058594 -52.19375 38.42539062 -51.54296875 37.78125 C-49.49989621 35.87762527 -47.42310503 34.04897137 -45.30859375 32.2265625 C-41.03131596 28.50396774 -37.05093099 24.53469857 -33.08203125 20.48828125 C-28.55160576 15.86937089 -23.97468077 11.41404495 -19.0390625 7.2265625 C-16.92665758 5.4701098 -16.92665758 5.4701098 -15.09887695 2.81176758 C-10.38831687 -0.81616803 -5.77878849 -0.13156539 0 0 Z " fill="#F0AF03" transform="translate(1307.08203125,358.51171875)"/>
<path d="M0 0 C0.98079025 0.00022659 1.96158051 0.00045319 2.97209167 0.00068665 C4.028423 0.0161705 5.08475433 0.03165436 6.1730957 0.04760742 C7.25645706 0.05185226 8.33981842 0.05609711 9.45600891 0.06047058 C12.92054972 0.07728048 16.38451157 0.11493769 19.84887695 0.15307617 C22.19587377 0.16811999 24.54287969 0.18180892 26.88989258 0.1940918 C32.647252 0.22719156 38.40427312 0.27741412 44.16137695 0.34057617 C43.74995956 0.82051025 43.33854218 1.30044434 42.91465759 1.79492188 C42.10467064 2.73984497 42.10467064 2.73984497 41.27832031 3.70385742 C40.74315292 4.3281665 40.20798553 4.95247559 39.65660095 5.59570312 C38.53383604 6.90592971 37.41186285 8.21683483 36.2902832 9.52807617 C33.51156727 12.74334847 30.69055924 15.85883075 27.66137695 18.84057617 C24.66333182 21.7921914 21.89918255 24.88476238 19.1496582 28.06713867 C11.5877646 36.71354747 3.65876432 45.0491929 -4.19018555 53.43432617 C-6.71567676 56.13365878 -9.2297115 58.84313558 -11.73706055 61.55932617 C-12.68875122 62.5873938 -12.68875122 62.5873938 -13.65966797 63.63623047 C-14.87840128 64.95316387 -16.09481817 66.27224581 -17.30859375 67.59375 C-17.85862061 68.18696045 -18.40864746 68.7801709 -18.9753418 69.39135742 C-19.45704834 69.91383057 -19.93875488 70.43630371 -20.43505859 70.97460938 C-21.83862305 72.34057617 -21.83862305 72.34057617 -24.83862305 74.34057617 C-30.57287297 69.4680988 -35.94403018 64.3340357 -41.21362305 58.96557617 C-42.61495052 57.53881626 -44.01848655 56.1142211 -45.42456055 54.69213867 C-46.33794189 53.76135498 -46.33794189 53.76135498 -47.26977539 52.81176758 C-48.78985766 51.24595655 -48.78985766 51.24595655 -50.83862305 50.34057617 C-49.24922879 46.40843316 -46.67519803 44.01037271 -43.65112305 41.09057617 C-40.44174003 37.98443205 -37.389511 34.86603806 -34.4753418 31.48120117 C-30.17254761 26.50478779 -25.4931845 21.94428395 -20.79956055 17.34057617 C-16.81282804 13.40002204 -13.02235118 9.36570199 -9.3815918 5.10229492 C-8.87241211 4.52092773 -8.36323242 3.93956055 -7.83862305 3.34057617 C-7.41159592 2.81626511 -6.98456879 2.29195404 -6.54460144 1.75175476 C-4.2693447 -0.13032863 -2.92914644 -0.02258982 0 0 Z " fill="#F0AF03" transform="translate(492.838623046875,462.659423828125)"/>
<path d="M0 0 C2.31 0 4.62 0 7 0 C7 18.81 7 37.62 7 57 C4.69 57 2.38 57 0 57 C0 56.34 0 55.68 0 55 C-0.99 55.66 -1.98 56.32 -3 57 C-7.372191 57.38849339 -11.75400619 57.32911821 -16.14135742 57.31567383 C-18.29462882 57.31252612 -20.44650904 57.33593372 -22.59960938 57.36132812 C-23.97916495 57.36360262 -25.35872418 57.36430392 -26.73828125 57.36328125 C-28.61060425 57.36775269 -28.61060425 57.36775269 -30.52075195 57.37231445 C-34.97671802 56.89548137 -38.18509763 55.36117678 -41.75 52.6875 C-45.3919046 47.77092878 -45.3652314 41.97638995 -45.375 36.125 C-45.39949219 35.36058594 -45.42398437 34.59617187 -45.44921875 33.80859375 C-45.47717764 28.319331 -44.6425593 23.28935814 -41 19 C-35.9381728 15.48727486 -32.6638126 14.50332875 -26.38671875 14.57421875 C-25.34328056 14.57915092 -25.34328056 14.57915092 -24.27876282 14.58418274 C-22.82238264 14.59452982 -21.36604114 14.61435298 -19.90991211 14.64331055 C-17.67604007 14.68772786 -15.44324524 14.70480708 -13.20898438 14.71679688 C-2.36148415 14.81925793 -2.36148415 14.81925793 0 16 C0 10.72 0 5.44 0 0 Z " fill="#E2A602" transform="translate(1088,553)"/>
<path d="M0 0 C5.01705721 -0.07442006 10.03378972 -0.12872908 15.05126953 -0.16479492 C16.75640463 -0.17983738 18.46150132 -0.20027653 20.16650391 -0.22631836 C22.62412012 -0.26290284 25.08122269 -0.27977173 27.5390625 -0.29296875 C28.29555084 -0.30845261 29.05203918 -0.32393646 29.83145142 -0.33988953 C34.62665292 -0.34139802 37.82672887 0.39297147 42 3 C46.89969782 8.16454635 47.12711218 12.00152478 47.09765625 18.953125 C47.0962413 19.61334656 47.09482635 20.27356812 47.09336853 20.95379639 C47.08779245 23.05257794 47.07524447 25.15125095 47.0625 27.25 C47.0574819 28.67708179 47.05291954 30.10416525 47.04882812 31.53125 C47.03783088 35.02086832 47.0205828 38.51042356 47 42 C44.69 42 42.38 42 40 42 C40 41.34 40 40.68 40 40 C39.47905762 40.32379639 38.95811523 40.64759277 38.42138672 40.98120117 C33.66691999 42.98164377 28.29859158 42.33190107 23.21044922 42.31567383 C21.13845887 42.31252048 19.06790709 42.33596602 16.99609375 42.36132812 C15.02189453 42.36229492 15.02189453 42.36229492 13.0078125 42.36328125 C11.80785645 42.36626221 10.60790039 42.36924316 9.37158203 42.37231445 C4.75754613 41.86279927 1.32645236 40.46367157 -1.8125 37 C-4.19445102 32.98829301 -4.31624351 29.58553091 -4 25 C-2.61586247 21.6165527 -1.49451998 20.30670947 1.61572266 18.37768555 C5.53095464 16.7838568 8.87305981 16.61686684 13.0234375 16.70703125 C13.76961334 16.71127609 14.51578918 16.71552094 15.28457642 16.71989441 C17.64843098 16.73657618 20.01140676 16.77420661 22.375 16.8125 C23.9856647 16.82756051 25.59634287 16.84124652 27.20703125 16.85351562 C31.13835515 16.88644496 35.06902901 16.93815238 39 17 C38.73606499 13.56769552 38.73606499 13.56769552 38 10 C34.29329628 7.52886419 31.34807819 7.65211411 27.05078125 7.5859375 C26.27816452 7.56657135 25.50554779 7.5472052 24.70951843 7.5272522 C22.2439576 7.46751521 19.77834993 7.42109514 17.3125 7.375 C15.6399537 7.33681475 13.96742695 7.29776269 12.29492188 7.2578125 C8.19677353 7.16181867 4.09853312 7.07776623 0 7 C0 4.69 0 2.38 0 0 Z " fill="#E5A902" transform="translate(942,568)"/>
<path d="M0 0 C2.06100959 0.00314806 4.1205654 -0.02027278 6.18139648 -0.0456543 C20.58049029 -0.05272307 20.58049029 -0.05272307 26.17553711 5.06176758 C27.70836398 8.23180738 27.69919338 10.87138005 27.70288086 14.37817383 C27.7222168 15.60665039 27.74155273 16.83512695 27.76147461 18.10083008 C27.26538086 21.31567383 27.26538086 21.31567383 25.77832031 22.99829102 C22.11965806 24.91630729 18.59064651 24.68559572 14.56225586 24.60864258 C13.72446594 24.60439774 12.88667603 24.60015289 12.02349854 24.59577942 C9.35379584 24.57901791 6.68485449 24.54137094 4.01538086 24.50317383 C2.20289178 24.4881237 0.39039084 24.47443586 -1.42211914 24.4621582 C-5.85991145 24.42912272 -10.29713631 24.37735826 -14.73461914 24.31567383 C-14.61086914 25.59442383 -14.48711914 26.87317383 -14.35961914 28.19067383 C-14.29000977 28.9099707 -14.22040039 29.62926758 -14.14868164 30.37036133 C-13.87087165 32.54235628 -13.87087165 32.54235628 -11.73461914 34.31567383 C-8.79801704 34.56161472 -5.94899802 34.68942635 -3.00805664 34.72973633 C-2.14524078 34.74910248 -1.28242493 34.76846863 -0.39346313 34.78842163 C2.36771702 34.84829587 5.1289387 34.89463381 7.89038086 34.94067383 C9.76019091 34.97884642 11.62998324 35.01789772 13.49975586 35.05786133 C18.08815395 35.15400374 22.67663437 35.23800549 27.26538086 35.31567383 C27.26538086 37.62567383 27.26538086 39.93567383 27.26538086 42.31567383 C22.12420031 42.36533969 16.98316135 42.40151878 11.84179688 42.42553711 C10.09502731 42.43555651 8.34827436 42.44917578 6.6015625 42.46655273 C4.08190801 42.49098052 1.56247647 42.50219771 -0.95727539 42.51098633 C-1.73047623 42.5213089 -2.50367706 42.53163147 -3.30030823 42.54226685 C-9.43874549 42.54351953 -14.68617572 41.95001144 -19.63305664 38.00317383 C-23.20305624 33.17679209 -22.45482703 27.04084138 -22.35961914 21.31567383 C-22.37895508 20.15293945 -22.39829102 18.99020508 -22.41821289 17.79223633 C-22.36402029 8.3193696 -22.36402029 8.3193696 -19.44555664 4.62817383 C-13.31774933 -0.59900474 -7.84316207 -0.02508771 0 0 Z " fill="#E7A802" transform="translate(1171.734619140625,567.684326171875)"/>
<path d="M0 0 C0.97965981 -0.00430527 0.97965981 -0.00430527 1.97911072 -0.00869751 C3.35497916 -0.0107328 4.73087688 -0.00524028 6.10668945 0.00732422 C8.21175719 0.02341391 10.31491286 0.00744673 12.41992188 -0.01171875 C13.75911881 -0.00973673 15.09831456 -0.00589389 16.4375 0 C17.6531665 0.00338379 18.86883301 0.00676758 20.12133789 0.01025391 C23.15234375 0.3984375 23.15234375 0.3984375 25.04492188 1.61083984 C27.37798978 5.3768723 26.61997081 10.10396268 26.58984375 14.3984375 C26.61981445 15.914375 26.61981445 15.914375 26.65039062 17.4609375 C26.64974609 18.4303125 26.64910156 19.3996875 26.6484375 20.3984375 C26.65121704 21.72875 26.65121704 21.72875 26.65405273 23.0859375 C26.15234375 25.3984375 26.15234375 25.3984375 24.54931641 27.18383789 C21.35294575 28.80351033 18.88318756 28.80336155 15.3046875 28.83203125 C14.32502769 28.83989403 14.32502769 28.83989403 13.32557678 28.84791565 C11.94973163 28.85431952 10.57383161 28.85301997 9.19799805 28.84448242 C7.09260032 28.83594867 4.98989706 28.86478577 2.88476562 28.89648438 C1.54557373 28.89809601 0.20637703 28.89751957 -1.1328125 28.89453125 C-2.95631226 28.89731079 -2.95631226 28.89731079 -4.81665039 28.90014648 C-7.84765625 28.3984375 -7.84765625 28.3984375 -9.74023438 26.67236328 C-11.74633189 22.553141 -11.31858378 18.33649886 -11.28515625 13.8359375 C-11.31512695 12.39831055 -11.31512695 12.39831055 -11.34570312 10.93164062 C-11.34505859 10.01189453 -11.34441406 9.09214844 -11.34375 8.14453125 C-11.34560303 7.30591553 -11.34745605 6.4672998 -11.34936523 5.60327148 C-10.84765625 3.3984375 -10.84765625 3.3984375 -9.24462891 1.62670898 C-6.04284723 -0.01396769 -3.59210837 0.00998931 0 0 Z " fill="#050400" transform="translate(1061.84765625,574.6015625)"/>
<path d="M0 0 C19.8 0 39.6 0 60 0 C60 2.31 60 4.62 60 7 C51.42 7 42.84 7 34 7 C34 23.17 34 39.34 34 56 C31.36 56 28.72 56 26 56 C26 39.83 26 23.66 26 7 C17.42 7 8.84 7 0 7 C0 4.69 0 2.38 0 0 Z " fill="#D99F01" transform="translate(746,554)"/>
<path d="M0 0 C0.87914062 0.00451172 1.75828125 0.00902344 2.6640625 0.01367188 C4.81773803 0.02537663 6.97137817 0.04330931 9.125 0.0625 C9.125 2.3725 9.125 4.6825 9.125 7.0625 C7.81144531 7.09988281 6.49789062 7.13726563 5.14453125 7.17578125 C3.40882636 7.24145657 1.67315053 7.30790337 -0.0625 7.375 C-0.92681641 7.39755859 -1.79113281 7.42011719 -2.68164062 7.44335938 C-3.52275391 7.47880859 -4.36386719 7.51425781 -5.23046875 7.55078125 C-6.00028076 7.57696533 -6.77009277 7.60314941 -7.56323242 7.63012695 C-10.67655435 8.2124158 -12.44586661 9.00384102 -14.875 11.0625 C-15.65911713 14.34111071 -15.65911713 14.34111071 -15.58203125 18.13671875 C-15.59715256 18.8205513 -15.61227386 19.50438385 -15.62785339 20.2089386 C-15.67078663 22.3896263 -15.67957234 24.56893152 -15.6875 26.75 C-15.71064043 28.22985461 -15.73600484 29.70967623 -15.76367188 31.18945312 C-15.82657532 34.81377494 -15.85886981 38.43763428 -15.875 42.0625 C-18.515 42.0625 -21.155 42.0625 -23.875 42.0625 C-23.97469463 37.93667603 -24.04685233 33.81132903 -24.09472656 29.68457031 C-24.1147063 28.28405527 -24.1419002 26.88362218 -24.17675781 25.48339844 C-24.37167172 17.44606628 -24.46433505 10.94650257 -19.875 4.0625 C-14.79756862 -1.18417909 -6.77603722 -0.06633169 0 0 Z " fill="#E0A504" transform="translate(879.875,567.9375)"/>
<path d="M0 0 C0.99 0.66 1.98 1.32 3 2 C5.64632287 1.6878236 5.64632287 1.6878236 8 1 C8.08741124 4.56234428 8.14052896 8.12441108 8.1875 11.6875 C8.21263672 12.69490234 8.23777344 13.70230469 8.26367188 14.74023438 C8.35545986 24.01082132 8.35545986 24.01082132 5 28 C3 30 3 30 0.28515625 30.265625 C-0.77832031 30.26046875 -1.84179688 30.2553125 -2.9375 30.25 C-4.52884766 30.25773438 -4.52884766 30.25773438 -6.15234375 30.265625 C-9 30 -9 30 -12 28 C-11.67 26.68 -11.34 25.36 -11 24 C-10.319375 24.33 -9.63875 24.66 -8.9375 25 C-5.44174101 26.19004561 -2.67062141 26.27702803 1 26 C3.35953094 23.64046906 3.49141413 22.22104383 4 19 C3.484375 19.33 2.96875 19.66 2.4375 20 C-0.96121795 21.39434583 -3.35594448 21.44751559 -7 21 C-10.84554163 17.82324822 -12.80224739 15.71385593 -13.375 10.75 C-12.88072704 5.80727042 -11.46171699 4.46171699 -8 1 C-5.22899606 -0.38550197 -3.0665294 -0.1877467 0 0 Z " fill="#E2A904" transform="translate(1153,659)"/>
<path d="M0 0 C29.7 0 59.4 0 90 0 C90 1.65 90 3.3 90 5 C60.3 5 30.6 5 0 5 C0 3.35 0 1.7 0 0 Z " fill="#D9A002" transform="translate(626,583)"/>
<path d="M0 0 C29.37 0 58.74 0 89 0 C89 1.65 89 3.3 89 5 C59.63 5 30.26 5 0 5 C0 3.35 0 1.7 0 0 Z " fill="#E8B002" transform="translate(1253,583)"/>
<path d="M0 0 C1.28068359 0.00193359 2.56136719 0.00386719 3.88085938 0.00585938 C4.54738525 0.01206299 5.21391113 0.0182666 5.90063477 0.0246582 C7.93062957 0.04287206 9.9601665 0.04516803 11.99023438 0.04492188 C21.94183828 0.08995176 21.94183828 0.08995176 26.50390625 1.23046875 C26.50390625 4.86046875 26.50390625 8.49046875 26.50390625 12.23046875 C21.69842028 12.27983758 16.89308131 12.31617318 12.08740234 12.34033203 C10.45195953 12.35040129 8.81653476 12.36405756 7.18115234 12.38134766 C4.83296255 12.4055558 2.48501037 12.41694232 0.13671875 12.42578125 C-0.96336014 12.44126511 -0.96336014 12.44126511 -2.08566284 12.45706177 C-3.89072072 12.45746243 -5.69517205 12.3525963 -7.49609375 12.23046875 C-9.82137662 9.90518588 -9.791204 9.38380977 -9.80859375 6.23046875 C-9.82535156 5.52921875 -9.84210937 4.82796875 -9.859375 4.10546875 C-9.73949219 3.48671875 -9.61960937 2.86796875 -9.49609375 2.23046875 C-5.89955917 -0.16722097 -4.27086109 -0.01495051 0 0 Z " fill="#0D0900" transform="translate(955.49609375,590.76953125)"/>
<path d="M0 0 C0.98178223 -0.00430527 0.98178223 -0.00430527 1.98339844 -0.00869751 C3.36524319 -0.01073618 4.74711693 -0.00521996 6.12890625 0.00732422 C8.2428445 0.02338314 10.35487113 0.00747149 12.46875 -0.01171875 C13.81250422 -0.00973628 15.15625724 -0.00589252 16.5 0 C17.72203125 0.00338379 18.9440625 0.00676758 20.203125 0.01025391 C23.25 0.3984375 23.25 0.3984375 25.16015625 1.69287109 C26.93141354 4.46482527 26.43050379 7.20953726 26.25 10.3984375 C23.18405406 11.93141047 19.97888147 11.51975205 16.6171875 11.49609375 C15.48943405 11.49397133 15.48943405 11.49397133 14.33889771 11.49180603 C11.9342249 11.48620215 9.52964473 11.47364907 7.125 11.4609375 C5.49609509 11.455923 3.86718873 11.45136 2.23828125 11.44726562 C-1.75784827 11.43623147 -5.75390842 11.41896429 -9.75 11.3984375 C-10.11092438 4.05964181 -10.11092438 4.05964181 -8.671875 1.42333984 C-5.76508891 -0.12679837 -3.27873505 0.00907878 0 0 Z " fill="#0A0700" transform="translate(1166.75,574.6015625)"/>
<path d="M0 0 C5.57894737 3.15789474 5.57894737 3.15789474 7 6 C7.55512815 10.63213493 7.6364242 13.98172127 5.125 18 C1.61416183 21.30431828 -1.06429794 21.38948117 -5.73828125 21.359375 C-9.32520929 20.78943134 -10.86838894 18.79773951 -13 16 C-14.55024464 12.89951072 -14.28992015 10.42105782 -14 7 C-10.43789452 1.27518762 -6.73064276 -0.80767713 0 0 Z " fill="#DEA202" transform="translate(1122,659)"/>
<path d="M0 0 C2.35953094 2.35953094 2.49141413 3.77895617 3 7 C3.66 6.67 4.32 6.34 5 6 C5.144375 7.134375 5.28875 8.26875 5.4375 9.4375 C5.61171478 12.80777201 5.61171478 12.80777201 7 14 C9.44608998 14.15980437 11.86731058 14.25929447 14.31640625 14.31640625 C15.04746078 14.33718735 15.77851532 14.35796844 16.53172302 14.37937927 C18.87521656 14.44495024 21.21882539 14.50379432 23.5625 14.5625 C25.14779855 14.60567808 26.73308529 14.64929213 28.31835938 14.69335938 C32.21212037 14.8006392 36.10599772 14.9018849 40 15 C40.495 17.475 40.495 17.475 41 20 C35.89975208 23.1701046 30.01642978 22.33419042 24.21044922 22.31567383 C22.13845887 22.31252048 20.06790709 22.33596602 17.99609375 22.36132812 C16.02189453 22.36229492 16.02189453 22.36229492 14.0078125 22.36328125 C12.80785645 22.36626221 11.60790039 22.36924316 10.37158203 22.37231445 C5.75754613 21.86279927 2.32645236 20.46367157 -0.8125 17 C-3.19445102 12.98829301 -3.31624351 9.58553091 -3 5 C-1.5 2.0625 -1.5 2.0625 0 0 Z " fill="#E0A201" transform="translate(941,588)"/>
<path d="M0 0 C6.27 0 12.54 0 19 0 C19 1.32 19 2.64 19 4 C14.05 4 9.1 4 4 4 C4 6.97 4 9.94 4 13 C8.62 13 13.24 13 18 13 C18 13.99 18 14.98 18 16 C13.38 16 8.76 16 4 16 C4 19.3 4 22.6 4 26 C9.28 26 14.56 26 20 26 C20 27.32 20 28.64 20 30 C13.4 30 6.8 30 0 30 C0 20.1 0 10.2 0 0 Z " fill="#DDA602" transform="translate(900,650)"/>
<path d="M0 0 C3.49406769 1.66762322 4.82670681 2.74006022 7 6 C7 7.98 7 9.96 7 12 C2.05 12 -2.9 12 -8 12 C-7.01 13.65 -6.02 15.3 -5 17 C-1.31041043 17.66223403 0.77046084 16.67045129 4 15 C4.66 15.33 5.32 15.66 6 16 C4.25 19.875 4.25 19.875 2 21 C-2.59876684 21.55112923 -5.97787887 21.61753151 -10 19.1875 C-12.57248533 16.37384417 -12.94866316 14.45347543 -13.375 10.6875 C-12.87765929 5.79698299 -11.42915508 4.42915508 -8 1 C-5.17998673 -0.41000664 -3.12992745 -0.24548451 0 0 Z " fill="#E4AA01" transform="translate(1269,659)"/>
<path d="M0 0 C2.5 2.1875 2.5 2.1875 4 5 C4 6.98 4 8.96 4 11 C-0.95 11 -5.9 11 -11 11 C-10.01 12.65 -9.02 14.3 -8 16 C-3.35413108 15.51515724 -3.35413108 15.51515724 1 14 C1.66 14.33 2.32 14.66 3 15 C1.25 18.875 1.25 18.875 -1 20 C-4.05920574 20.42071592 -6.9467746 20.48514117 -10 20 C-12.75569447 17.81840855 -14.43588747 16.12822506 -16 13 C-16.44408691 9.0920352 -16.13704844 7.25451854 -14.25 3.75 C-10.09991382 -1.32232755 -6.1965235 -1.95546029 0 0 Z " fill="#D39902" transform="translate(766,660)"/>
<path d="M0 0 C2.67469231 1.98382662 4.69391722 3.53204051 5.3984375 6.91088867 C5.49163208 9.06576008 5.43756374 11.15947966 5.3125 13.3125 C5.28994141 14.05306641 5.26738281 14.79363281 5.24414062 15.55664062 C5.1855815 17.37197357 5.09590886 19.18625681 5 21 C4.195625 20.814375 3.39125 20.62875 2.5625 20.4375 C1.716875 20.293125 0.87125 20.14875 0 20 C-0.33 20.33 -0.66 20.66 -1 21 C-8.17684887 21.46302251 -8.17684887 21.46302251 -11 19.875 C-12.47901666 17.10184376 -12.38601984 15.08815875 -12 12 C-10.14657225 9.44050454 -9.06243607 9.02081202 -6 8 C-3.66700175 7.96045766 -1.33291811 7.95598268 1 8 C0.67 7.01 0.34 6.02 0 5 C-1.093125 5 -2.18625 5 -3.3125 5 C-5.54166667 5 -7.77083333 5 -10 5 C-10 4.01 -10 3.02 -10 2 C-6.24952518 -0.50031654 -4.44143734 -0.53603554 0 0 Z " fill="#DFA702" transform="translate(943,659)"/>
<path d="M0 0 C2.9375 2.1875 2.9375 2.1875 5 5 C5 6.98 5 8.96 5 11 C0.05 11 -4.9 11 -10 11 C-9.01 12.65 -8.02 14.3 -7 16 C-5.39125 15.7525 -5.39125 15.7525 -3.75 15.5 C0 15 0 15 4 15 C2.125 18.875 2.125 18.875 1 20 C-3.94688013 20.64126224 -7.79228391 20.72462965 -12.125 18.125 C-14.75595855 13.74006908 -15.04908008 9.99132631 -14 5 C-9.64674569 -0.61340687 -6.86398991 -1.62874337 0 0 Z " fill="#F5C108" transform="translate(1187,660)"/>
<path d="M0 0 C1.32 0 2.64 0 4 0 C4.33 3.63 4.66 7.26 5 11 C6.051875 10.7525 7.10375 10.505 8.1875 10.25 C12 10 12 10 14.875 11.8125 C18.51138138 15.55583378 18.12206905 18.65785766 18.0625 23.625 C18.05798828 24.33140625 18.05347656 25.0378125 18.04882812 25.765625 C18.03703875 27.51045275 18.01910324 29.255237 18 31 C16.35 31 14.7 31 13 31 C12.67 26.05 12.34 21.1 12 16 C10.35 15.67 8.7 15.34 7 15 C4.14206684 17.85793316 4.59200059 20.14665584 4.375 24.125 C4.26285156 26.04699219 4.26285156 26.04699219 4.1484375 28.0078125 C4.09945313 28.99523437 4.05046875 29.98265625 4 31 C2.68 31 1.36 31 0 31 C0 20.77 0 10.54 0 0 Z " fill="#C69403" transform="translate(1227,649)"/>
<path d="M0 0 C7.59 0 15.18 0 23 0 C23 1.32 23 2.64 23 4 C20.03 4 17.06 4 14 4 C14 12.58 14 21.16 14 30 C12.35 30 10.7 30 9 30 C9 21.42 9 12.84 9 4 C6.03 4 3.06 4 0 4 C0 2.68 0 1.36 0 0 Z " fill="#CC9902" transform="translate(1080,650)"/>
<path d="M0 0 C3.5 0.875 3.5 0.875 5.20703125 2.4140625 C7.05283201 5.92721803 6.82055915 9.26287287 6.6875 13.125 C6.66719727 14.24261719 6.66719727 14.24261719 6.64648438 15.3828125 C6.61127204 17.21385416 6.55746851 19.04452169 6.5 20.875 C4.85 20.875 3.2 20.875 1.5 20.875 C1.17 15.925 0.84 10.975 0.5 5.875 C-1.15 5.545 -2.8 5.215 -4.5 4.875 C-7.35793316 7.73293316 -6.90799941 10.02165584 -7.125 14 C-7.23714844 15.92199219 -7.23714844 15.92199219 -7.3515625 17.8828125 C-7.40054688 18.87023437 -7.44953125 19.85765625 -7.5 20.875 C-8.82 20.875 -10.14 20.875 -11.5 20.875 C-11.5 14.275 -11.5 7.675 -11.5 0.875 C-9.025 1.37 -9.025 1.37 -6.5 1.875 C-3.5 -0.125 -3.5 -0.125 0 0 Z " fill="#B78803" transform="translate(704.5,659.125)"/>
<path d="M0 0 C3.50583015 0.27496707 4.73372142 0.79622142 7.1875 3.25 C8.3937252 6.86867559 8.29566918 10.17506251 8.25 13.9375 C8.24548828 14.63939453 8.24097656 15.34128906 8.23632812 16.06445312 C8.22456927 17.79300538 8.20663454 19.52151365 8.1875 21.25 C6.5375 21.25 4.8875 21.25 3.1875 21.25 C3.12691406 20.17878906 3.06632813 19.10757813 3.00390625 18.00390625 C2.91951463 16.60675609 2.83486594 15.20962143 2.75 13.8125 C2.71068359 13.10544922 2.67136719 12.39839844 2.63085938 11.66992188 C2.71125562 8.16309581 2.71125562 8.16309581 1.1875 5.25 C-0.47867115 5.20936168 -2.14638095 5.207279 -3.8125 5.25 C-5.2932848 8.2115696 -5.16564037 11.08506295 -5.375 14.375 C-5.45878906 15.65632812 -5.54257812 16.93765625 -5.62890625 18.2578125 C-5.71978516 19.73894531 -5.71978516 19.73894531 -5.8125 21.25 C-7.1325 21.25 -8.4525 21.25 -9.8125 21.25 C-9.8125 14.65 -9.8125 8.05 -9.8125 1.25 C-7.8325 1.25 -5.8525 1.25 -3.8125 1.25 C-2.8125 0.25 -2.8125 0.25 0 0 Z " fill="#CB9702" transform="translate(993.8125,658.75)"/>
<path d="M0 0 C29.37 0 58.74 0 89 0 C89 1.65 89 3.3 89 5 C88.34 5 87.68 5 87 5 C87 4.34 87 3.68 87 3 C76.08230602 2.97686462 65.16461784 2.95907879 54.24690437 2.94818783 C49.17777772 2.94296163 44.1086678 2.93586872 39.03955078 2.92456055 C34.15071319 2.91372237 29.26189173 2.90772118 24.37304306 2.90512276 C22.50466533 2.90327019 20.63628852 2.89965279 18.76791763 2.89426994 C16.15792154 2.88704719 13.54799271 2.88600959 10.93798828 2.88647461 C10.1597168 2.88287933 9.38144531 2.87928406 8.57958984 2.87557983 C4.66147286 2.80315814 4.66147286 2.80315814 1 4 C0.67 2.68 0.34 1.36 0 0 Z " fill="#D59D00" transform="translate(1253,583)"/>
<path d="M0 0 C0.66 0.99 1.32 1.98 2 3 C1.01 3.66 0.02 4.32 -1 5 C-1.33 4.67 -1.66 4.34 -2 4 C-3.66617115 3.95936168 -5.33388095 3.957279 -7 4 C-7.33 4.99 -7.66 5.98 -8 7 C-6.9275 7.103125 -5.855 7.20625 -4.75 7.3125 C-1.14179128 7.97400493 0.36395023 8.57483421 3 11 C2.6875 14.375 2.6875 14.375 2 18 C-1.20380017 20.13586678 -2.01939967 20.23132175 -5.6875 20.125 C-6.49574219 20.10695313 -7.30398438 20.08890625 -8.13671875 20.0703125 C-8.75160156 20.04710937 -9.36648438 20.02390625 -10 20 C-10.66 18.68 -11.32 17.36 -12 16 C-8.67465243 14.89155081 -6.37817425 15.15545644 -3 16 C-2.67 15.01 -2.34 14.02 -2 13 C-2.55429687 12.80664062 -3.10859375 12.61328125 -3.6796875 12.4140625 C-4.40414062 12.15367187 -5.12859375 11.89328125 -5.875 11.625 C-6.95394531 11.24214844 -6.95394531 11.24214844 -8.0546875 10.8515625 C-10 10 -10 10 -12 8 C-12.4375 5.625 -12.4375 5.625 -12 3 C-8.21710646 -1.35605922 -5.43667327 -1.53868111 0 0 Z " fill="#D8A003" transform="translate(793,660)"/>
<path d="M0 0 C1.32 0 2.64 0 4 0 C4 1.65 4 3.3 4 5 C5.98 5 7.96 5 10 5 C10 6.32 10 7.64 10 9 C8.35 9 6.7 9 5 9 C5 12.96 5 16.92 5 21 C6.65 21 8.3 21 10 21 C10 22.32 10 23.64 10 25 C3.57178218 25.36386139 3.57178218 25.36386139 1.28125 23.90625 C-0.63271296 21.05864657 -0.28800847 18.69628509 -0.1875 15.3125 C-0.16042969 14.13300781 -0.13335938 12.95351563 -0.10546875 11.73828125 C-0.07066406 10.83464844 -0.03585937 9.93101562 0 9 C-1.32 8.67 -2.64 8.34 -4 8 C-4 7.01 -4 6.02 -4 5 C-2.68 5 -1.36 5 0 5 C0 3.35 0 1.7 0 0 Z " fill="#E5B005" transform="translate(809,655)"/>
<path d="M0 0 C0.08741124 3.56234428 0.14052896 7.12441108 0.1875 10.6875 C0.21263672 11.69490234 0.23777344 12.70230469 0.26367188 13.74023438 C0.35545986 23.01082132 0.35545986 23.01082132 -3 27 C-5 29 -5 29 -7.71484375 29.265625 C-8.77832031 29.26046875 -9.84179688 29.2553125 -10.9375 29.25 C-12.52884766 29.25773438 -12.52884766 29.25773438 -14.15234375 29.265625 C-17 29 -17 29 -20 27 C-19.67 25.68 -19.34 24.36 -19 23 C-18.319375 23.33 -17.63875 23.66 -16.9375 24 C-13.38139438 25.21058915 -10.73284441 25.41476049 -7 25 C-3.88962836 21.99330742 -3.07296815 18.96682797 -2.75 14.6875 C-3.02996926 10.55795336 -3.57816803 8.35931531 -6 5 C-9.5693717 3.55032098 -9.5693717 3.55032098 -13 3 C-13 2.34 -13 1.68 -13 1 C-8.59248108 0.02055135 -4.51540265 0 0 0 Z " fill="#EAAF03" transform="translate(1161,660)"/>
<path d="M0 0 C1.65 0 3.3 0 5 0 C6.65 4.29 8.3 8.58 10 13 C11.65 8.71 13.3 4.42 15 0 C16.65 0 18.3 0 20 0 C19.0443848 2.58436814 18.08562111 5.16749301 17.125 7.75 C16.85558594 8.47960937 16.58617187 9.20921875 16.30859375 9.9609375 C15.02634981 13.40110416 13.75382129 16.76479567 12 20 C9.6262207 19.76586914 9.6262207 19.76586914 7 19 C5.78979492 17.14233398 5.78979492 17.14233398 4.98046875 14.74609375 C4.68076172 13.89208984 4.38105469 13.03808594 4.07226562 12.15820312 C3.78029297 11.26037109 3.48832031 10.36253906 3.1875 9.4375 C2.87619141 8.53580078 2.56488281 7.63410156 2.24414062 6.70507812 C1.47741248 4.47566859 0.73048794 2.24149291 0 0 Z " fill="#ECB202" transform="translate(721,660)"/>
<path d="M0 0 C1.32 0 2.64 0 4 0 C4 12.54 4 25.08 4 38 C2.68 38 1.36 38 0 38 C0 25.46 0 12.92 0 0 Z " fill="#D5A002" transform="translate(857,649)"/>
<path d="M0 0 C1.32 0 2.64 0 4 0 C4 12.54 4 25.08 4 38 C2.68 38 1.36 38 0 38 C0 25.46 0 12.92 0 0 Z " fill="#D8A002" transform="translate(1040,649)"/>
<path d="M0 0 C1.32 0 2.64 0 4 0 C4 1.65 4 3.3 4 5 C5.65 5 7.3 5 9 5 C9 6.32 9 7.64 9 9 C7.35 9 5.7 9 4 9 C4.33 12.96 4.66 16.92 5 21 C6.32 21.33 7.64 21.66 9 22 C9 22.99 9 23.98 9 25 C5.625 25.125 5.625 25.125 2 25 C0 23 0 23 -0.1953125 19.5234375 C-0.18201493 18.14049032 -0.15816232 16.75761346 -0.125 15.375 C-0.11597656 14.66859375 -0.10695313 13.9621875 -0.09765625 13.234375 C-0.07407603 11.48943902 -0.03820461 9.74467705 0 8 C-1.32 8 -2.64 8 -4 8 C-4 7.01 -4 6.02 -4 5 C-2.68 5 -1.36 5 0 5 C0 3.35 0 1.7 0 0 Z " fill="#DFA907" transform="translate(1206,655)"/>
<path d="M0 0 C3.375 0.875 3.375 0.875 5.375 2.875 C5.72814229 6.12390907 5.65283078 8.25396648 4.3125 11.25 C2.375 12.875 2.375 12.875 -1.125 13.375 C-4.625 12.875 -4.625 12.875 -6.5625 11.1875 C-7.83804072 8.41132314 -8.15326174 6.8936385 -7.625 3.875 C-5.27446179 0.30218192 -4.32956596 -0.14929538 0 0 Z " fill="#110C01" transform="translate(1151.625,663.125)"/>
<path d="M0 0 C3.375 0.9375 3.375 0.9375 5.375 3.9375 C5.69662076 7.0250593 5.86224515 9.07765561 4.3125 11.8125 C1.23428089 13.59985303 -1.15406068 13.37136742 -4.625 12.9375 C-7.00960953 10.86058202 -7.5209746 9.53193084 -8.0625 6.4375 C-7.625 3.9375 -7.625 3.9375 -6.0625 1.5625 C-3.625 -0.0625 -3.625 -0.0625 0 0 Z " fill="#130E01" transform="translate(1119.625,663.0625)"/>
<path d="M0 0 C2.9375 2.1875 2.9375 2.1875 5 5 C5.3125 8.3125 5.3125 8.3125 5 11 C4.67 11 4.34 11 4 11 C4 9.35 4 7.7 4 6 C3.34 6 2.68 6 2 6 C2 6.99 2 7.98 2 9 C1.08476563 8.91621094 0.16953125 8.83242188 -0.7734375 8.74609375 C-1.96195313 8.64425781 -3.15046875 8.54242187 -4.375 8.4375 C-5.55835938 8.33308594 -6.74171875 8.22867188 -7.9609375 8.12109375 C-10.91898631 7.75846404 -10.91898631 7.75846404 -13 9 C-13.8125 7.3125 -13.8125 7.3125 -14 5 C-9.3307327 -0.42644578 -7.03457742 -1.66922176 0 0 Z " fill="#D59E02" transform="translate(1187,660)"/>
<path d="M0 0 C1.32 0 2.64 0 4 0 C4 9.9 4 19.8 4 30 C2.68 30 1.36 30 0 30 C0 20.1 0 10.2 0 0 Z " fill="#F1B601" transform="translate(675,650)"/>
<path d="M0 0 C3.14545189 2.75227041 3.93475209 4.13546515 4.25 8.3125 C4.1675 9.199375 4.085 10.08625 4 11 C-7.52164009 11.3690205 -7.52164009 11.3690205 -13 9 C-12.67 8.34 -12.34 7.68 -12 7 C-8.04 7.33 -4.08 7.66 0 8 C-0.33 6.68 -0.66 5.36 -1 4 C-6.08303686 3.88679144 -6.08303686 3.88679144 -11 5 C-11.66 4.67 -12.32 4.34 -13 4 C-12.1875 2.0625 -12.1875 2.0625 -11 0 C-7.15277408 -1.28240864 -3.84963526 -1.12313302 0 0 Z " fill="#E2A703" transform="translate(766,660)"/>
<path d="M0 0 C0.78375 0.04125 1.5675 0.0825 2.375 0.125 C2.375 1.775 2.375 3.425 2.375 5.125 C0.065 5.785 -2.245 6.445 -4.625 7.125 C-4.955 11.745 -5.285 16.365 -5.625 21.125 C-6.945 21.125 -8.265 21.125 -9.625 21.125 C-9.625 14.525 -9.625 7.925 -9.625 1.125 C-7.15 1.62 -7.15 1.62 -4.625 2.125 C-2.625 0.125 -2.625 0.125 0 0 Z " fill="#E6A902" transform="translate(970.625,658.875)"/>
<path d="M0 0 C0.99 0 1.98 0 3 0 C3 4.29 3 8.58 3 13 C3.66 13 4.32 13 5 13 C4.67 18.94 4.34 24.88 4 31 C2.68 31 1.36 31 0 31 C0 20.77 0 10.54 0 0 Z " fill="#E2AA01" transform="translate(1227,649)"/>
<path d="M0 0 C28.05 0 56.1 0 85 0 C85 0.33 85 0.66 85 1 C60.25 1.33 35.5 1.66 10 2 C9.67 2.66 9.34 3.32 9 4 C6.03 4 3.06 4 0 4 C0 2.68 0 1.36 0 0 Z " fill="#F8BC02" transform="translate(627,584)"/>
<path d="M0 0 C1.32 0 2.64 0 4 0 C4 1.32 4 2.64 4 4 C2.7934375 4.4640625 2.7934375 4.4640625 1.5625 4.9375 C-0.89080405 5.76335345 -0.89080405 5.76335345 -2 7 C-2.23527773 9.34987262 -2.41386417 11.70556039 -2.5625 14.0625 C-2.64628906 15.35285156 -2.73007813 16.64320313 -2.81640625 17.97265625 C-2.87699219 18.97167969 -2.93757813 19.97070312 -3 21 C-4.32 21 -5.64 21 -7 21 C-7 14.4 -7 7.8 -7 1 C-5.02 1 -3.04 1 -1 1 C-0.67 0.67 -0.34 0.34 0 0 Z " fill="#DCA404" transform="translate(1295,659)"/>
<path d="M0 0 C3.49406769 1.66762322 4.82670681 2.74006022 7 6 C7.125 9.1875 7.125 9.1875 7 12 C6.01 10.68 5.02 9.36 4 8 C3.67 8.33 3.34 8.66 3 9 C1.14712498 9.07226502 -0.70833878 9.0838122 -2.5625 9.0625 C-3.57441406 9.05347656 -4.58632812 9.04445313 -5.62890625 9.03515625 C-6.41136719 9.02355469 -7.19382812 9.01195312 -8 9 C-7.82597656 8.38640625 -7.65195313 7.7728125 -7.47265625 7.140625 C-6.93994607 4.7280202 -7.25276496 3.32473122 -8 1 C-5.17998673 -0.41000664 -3.12992745 -0.24548451 0 0 Z " fill="#DDA605" transform="translate(1269,659)"/>
<path d="M0 0 C7.26 0 14.52 0 22 0 C21.01 0.33 20.02 0.66 19 1 C19.33 1.66 19.66 2.32 20 3 C23.02934491 3.65772428 23.02934491 3.65772428 26 4 C26 4.33 26 4.66 26 5 C17.42 5 8.84 5 0 5 C0 3.35 0 1.7 0 0 Z " fill="#F0B401" transform="translate(746,555)"/>
<path d="M0 0 C0 0.33 0 0.66 0 1 C-1.98 1 -3.96 1 -6 1 C-6 1.66 -6 2.32 -6 3 C-3.69 3 -1.38 3 1 3 C1.6875 4.8125 1.6875 4.8125 2 7 C1 8.75 1 8.75 -1 10 C-4.6875 10.1875 -4.6875 10.1875 -8 10 C-8.66 8.68 -9.32 7.36 -10 6 C-10.66 6 -11.32 6 -12 6 C-12.33 7.32 -12.66 8.64 -13 10 C-13.36627907 4.50581395 -13.36627907 4.50581395 -11.6875 2.1875 C-7.96791703 -0.42998431 -4.38234788 -0.08268581 0 0 Z " fill="#C99603" transform="translate(944,667)"/>
<path d="M0 0 C0.33 0 0.66 0 1 0 C2.03405665 4.2654837 2 7.37316973 2 12 C6.95 12 11.9 12 17 12 C17 12.99 17 13.98 17 15 C11.06 15 5.12 15 -1 15 C-1.13392857 3.75 -1.13392857 3.75 0 0 Z " fill="#F1B606" transform="translate(902,664)"/>
<path d="M0 0 C4.875 0.875 4.875 0.875 6 2 C5.75 5.4375 5.75 5.4375 5 9 C1.79619983 11.13586678 0.98060033 11.23132175 -2.6875 11.125 C-3.49574219 11.10695313 -4.30398438 11.08890625 -5.13671875 11.0703125 C-6.05904297 11.03550781 -6.05904297 11.03550781 -7 11 C-7.66 9.68 -8.32 8.36 -9 7 C-5.67465243 5.89155081 -3.37817425 6.15545644 0 7 C0 5.68 0 4.36 0 3 C0 2.01 0 1.02 0 0 Z " fill="#F6BE07" transform="translate(790,669)"/>
<path d="M0 0 C1.32 0.33 2.64 0.66 4 1 C3.34 2.32 2.68 3.64 2 5 C2.66 5 3.32 5 4 5 C4 9.95 4 14.9 4 20 C2.68 20 1.36 20 0 20 C0 13.4 0 6.8 0 0 Z " fill="#EBB204" transform="translate(693,660)"/>
<path d="M0 0 C1 2 1 2 1.4375 5.5 C1.6570296 9.04766003 1.6570296 9.04766003 4 11 C6.57061311 11.64767793 6.57061311 11.64767793 9 12 C8.67 12.99 8.34 13.98 8 15 C5.3125 15.3125 5.3125 15.3125 2 15 C-0.57285724 12.827365 -2.48996919 11.02006162 -4 8 C-4.04022391 5.6670134 -4.04320247 3.33293334 -4 1 C-2.68 0.67 -1.36 0.34 0 0 Z " fill="#ECB705" transform="translate(1112,665)"/>
<path d="M0 0 C0.66 0.33 1.32 0.66 2 1 C2 4 2 4 1 7 C4.63 7 8.26 7 12 7 C12.33 6.01 12.66 5.02 13 4 C13.66 4.33 14.32 4.66 15 5 C15 6.65 15 8.3 15 10 C10.05 10 5.1 10 0 10 C-0.33 10.66 -0.66 11.32 -1 12 C-1.02687279 10.18757948 -1.04633715 8.37504767 -1.0625 6.5625 C-1.07410156 5.55316406 -1.08570313 4.54382813 -1.09765625 3.50390625 C-1 1 -1 1 0 0 Z " fill="#EFB505" transform="translate(1260,661)"/>
<path d="M0 0 C0.680625 0.845625 1.36125 1.69125 2.0625 2.5625 C4.83741201 5.41423462 4.83741201 5.41423462 8.6875 4.875 C11.84958374 4.16018907 11.84958374 4.16018907 14 3 C14.66 3.33 15.32 3.66 16 4 C14.25 7.875 14.25 7.875 12 9 C9.94140625 9.16796875 9.94140625 9.16796875 7.5625 9.1875 C6.38880859 9.20876953 6.38880859 9.20876953 5.19140625 9.23046875 C3 9 3 9 0 7 C-1.3125 2.625 -1.3125 2.625 0 0 Z " fill="#E8AF01" transform="translate(753,671)"/>
<path d="M0 0 C4.95 0 9.9 0 15 0 C10 5 10 5 6.375 6 C3 6 3 6 1.0625 4.75 C0 3 0 3 0 0 Z " fill="#241701" transform="translate(1177,671)"/>
<path d="M0 0 C4.95 0 9.9 0 15 0 C14.01 0.33 13.02 0.66 12 1 C11.7525 1.66 11.505 2.32 11.25 3 C10 5 10 5 6.5625 5.9375 C3 6 3 6 1.0625 4.75 C0 3 0 3 0 0 Z " fill="#1F1400" transform="translate(755,671)"/>
<path d="M0 0 C2.4375 1.5 2.4375 1.5 4 3 C3.34 4.65 2.68 6.3 2 8 C1.34 7.01 0.68 6.02 0 5 C-3.45821402 4.74996036 -3.45821402 4.74996036 -7 5 C-7.99 5 -8.98 5 -10 5 C-10 4.01 -10 3.02 -10 2 C-6.28986601 -0.47342266 -4.38939738 -0.38503486 0 0 Z " fill="#D9A302" transform="translate(943,659)"/>
<path d="M0 0 C0.99 0 1.98 0 3 0 C3 4.95 3 9.9 3 15 C1.68 15 0.36 15 -1 15 C-1.02685412 12.68756208 -1.04632841 10.3750373 -1.0625 8.0625 C-1.07410156 6.77472656 -1.08570313 5.48695313 -1.09765625 4.16015625 C-1 1 -1 1 0 0 Z " fill="#E8AD02" transform="translate(985,665)"/>
<path d="M0 0 C0 1.32 0 2.64 0 4 C-2.27076842 4.02699725 -4.54162821 4.04639453 -6.8125 4.0625 C-8.70935547 4.07990234 -8.70935547 4.07990234 -10.64453125 4.09765625 C-14 4 -14 4 -17 3 C-17 2.34 -17 1.68 -17 1 C-11.27959989 0.1679418 -5.77759884 -0.12036664 0 0 Z " fill="#EFB000" transform="translate(806,555)"/>
<path d="M0 0 C2 2 2 2 2.25 5.4375 C2 9 2 9 0 12 C0 11.01 0 10.02 0 9 C-0.515625 9.33 -1.03125 9.66 -1.5625 10 C-4.78026512 11.32010877 -7.5570528 11.13242105 -11 11 C-9.2061038 8.01017301 -8.34750527 7.10637916 -4.9375 6.0625 C-1.77713475 5.29319748 -1.77713475 5.29319748 -0.625 2.375 C-0.41875 1.59125 -0.2125 0.8075 0 0 Z " fill="#E0A101" transform="translate(1157,669)"/>
<path d="M0 0 C2.01822917 0.06510417 4.03645833 0.13020833 6.0546875 0.1953125 C4.0746875 1.1853125 4.0746875 1.1853125 2.0546875 2.1953125 C4.0346875 2.8553125 6.0146875 3.5153125 8.0546875 4.1953125 C8.0546875 4.5253125 8.0546875 4.8553125 8.0546875 5.1953125 C6.3840625 5.47375 6.3840625 5.47375 4.6796875 5.7578125 C3.4834375 6.2321875 2.2871875 6.7065625 1.0546875 7.1953125 C-0.48617572 10.70931918 -0.48617572 10.70931918 -0.9453125 14.1953125 C-1.2753125 14.1953125 -1.6053125 14.1953125 -1.9453125 14.1953125 C-2.33405078 12.23965992 -2.70592083 10.28064746 -3.0703125 8.3203125 C-3.27914062 7.22976563 -3.48796875 6.13921875 -3.703125 5.015625 C-3.78304687 4.08492187 -3.86296875 3.15421875 -3.9453125 2.1953125 C-1.9453125 0.1953125 -1.9453125 0.1953125 0 0 Z " fill="#F6BA04" transform="translate(945.9453125,585.8046875)"/>
<path d="M0 0 C0.99 0 1.98 0 3 0 C3 4.29 3 8.58 3 13 C3.66 13 4.32 13 5 13 C4.67 14.32 4.34 15.64 4 17 C2.68 16.34 1.36 15.68 0 15 C0 10.05 0 5.1 0 0 Z " fill="#EEB803" transform="translate(1227,649)"/>
<path d="M0 0 C1.98 0 3.96 0 6 0 C6 0.33 6 0.66 6 1 C4.35 1 2.7 1 1 1 C1 4.96 1 8.92 1 13 C2.65 13 4.3 13 6 13 C6 14.32 6 15.64 6 17 C2.625 17.1875 2.625 17.1875 -1 17 C-1.66 16.01 -2.32 15.02 -3 14 C-2.34 14 -1.68 14 -1 14 C-0.67 9.38 -0.34 4.76 0 0 Z " fill="#BE8F02" transform="translate(813,663)"/>
<path d="M0 0 C4.95 0 9.9 0 15 0 C15 0.33 15 0.66 15 1 C11.7 1 8.4 1 5 1 C5 1.99 5 2.98 5 4 C5.5775 3.67 6.155 3.34 6.75 3 C9 2 9 2 13 2 C11.70525365 4.58949269 10.67336607 4.96035764 8 6 C5.03438819 6.36165998 3.63230148 6.45787349 1.1875 4.6875 C0 3 0 3 0 0 Z " fill="#1B1000" transform="translate(1261,671)"/>
<path d="M0 0 C2 2 2 2 2 5 C-1.63 5 -5.26 5 -9 5 C-8.67 3.68 -8.34 2.36 -8 1 C-5.23749964 -0.38125018 -3.05268901 -0.19079306 0 0 Z " fill="#211500" transform="translate(1186,663)"/>
<path d="M0 0 C3.125 0.25 3.125 0.25 5 1.625 C6.125 3.25 6.125 3.25 6.125 5.25 C2.495 5.25 -1.135 5.25 -4.875 5.25 C-3.64166667 0.31666667 -3.64166667 0.31666667 0 0 Z " fill="#241700" transform="translate(1265.875,662.75)"/>
<path d="M0 0 C2.05078125 0.03255208 4.1015625 0.06510417 6.15234375 0.09765625 C5.57889438 2.96490311 5.29089225 3.95910775 3.15234375 6.09765625 C0.52734375 6.22265625 0.52734375 6.22265625 -1.84765625 6.09765625 C-2.22984392 4.44150968 -2.56160727 2.77308601 -2.84765625 1.09765625 C-1.84765625 0.09765625 -1.84765625 0.09765625 0 0 Z " fill="#190F00" transform="translate(937.84765625,670.90234375)"/>
<path d="M0 0 C0.33 1.32 0.66 2.64 1 4 C-2.63 4 -6.26 4 -10 4 C-9.67 2.68 -9.34 1.36 -9 0 C-5.93109813 -1.53445094 -3.29905734 -0.54984289 0 0 Z " fill="#1D1300" transform="translate(765,664)"/>
<path d="M0 0 C0.99 0.33 1.98 0.66 3 1 C1.125 4.875 1.125 4.875 0 6 C-1.68608966 6.07205511 -3.37500659 6.08386068 -5.0625 6.0625 C-5.98160156 6.05347656 -6.90070313 6.04445313 -7.84765625 6.03515625 C-8.55792969 6.02355469 -9.26820312 6.01195312 -10 6 C-10 5.01 -10 4.02 -10 3 C-9.04287109 2.80083984 -9.04287109 2.80083984 -8.06640625 2.59765625 C-7.24011719 2.42105469 -6.41382813 2.24445312 -5.5625 2.0625 C-4.73878906 1.88847656 -3.91507813 1.71445312 -3.06640625 1.53515625 C-1.02338796 1.19247006 -1.02338796 1.19247006 0 0 Z " fill="#E4B302" transform="translate(1188,674)"/>
<path d="M0 0 C0 1.65 0 3.3 0 5 C-0.93972656 5.19916016 -0.93972656 5.19916016 -1.8984375 5.40234375 C-3.12433594 5.66724609 -3.12433594 5.66724609 -4.375 5.9375 C-5.18710937 6.11152344 -5.99921875 6.28554688 -6.8359375 6.46484375 C-9.029463 6.92330693 -9.029463 6.92330693 -11 8 C-9.54205607 2.41121495 -9.54205607 2.41121495 -7.1875 0.625 C-4.69940916 -0.0858831 -2.57533152 -0.14307397 0 0 Z " fill="#BA8602" transform="translate(973,659)"/>
<path d="M0 0 C0 4.95 0 9.9 0 15 C-0.99 15 -1.98 15 -3 15 C-3 10.38 -3 5.76 -3 1 C-1 0 -1 0 0 0 Z " fill="#F3BE01" transform="translate(710,664)"/>
<path d="M0 0 C0.66 0.33 1.32 0.66 2 1 C1.95875 2.0725 1.9175 3.145 1.875 4.25 C1.9885825 7.65747485 2.21273364 9.20739631 4 12 C2.35 12.33 0.7 12.66 -1 13 C-2.17664871 9.47005387 -2.19850603 6.70544587 -2 3 C-1.34 2.01 -0.68 1.02 0 0 Z " fill="#D8A006" transform="translate(1258,663)"/>
<path d="M0 0 C1.32 0 2.64 0 4 0 C4 1.65 4 3.3 4 5 C2.02 5.99 2.02 5.99 0 7 C0 7.66 0 8.32 0 9 C-1.32 8.67 -2.64 8.34 -4 8 C-4 7.01 -4 6.02 -4 5 C-2.68 5 -1.36 5 0 5 C0 3.35 0 1.7 0 0 Z " fill="#D4A103" transform="translate(809,655)"/>
<path d="M0 0 C4.95 0.33 9.9 0.66 15 1 C15 1.99 15 2.98 15 4 C9.5610835 4.21755666 5.12919186 4.10428384 0 2 C0 1.34 0 0.68 0 0 Z " fill="#F5BB0B" transform="translate(753,667)"/>
<path d="M0 0 C2.61597369 2.43556171 2.97961136 3.64659694 3.1875 7.25 C3.125625 8.1575 3.06375 9.065 3 10 C2.67 10 2.34 10 2 10 C2 8.35 2 6.7 2 5 C1.34 5 0.68 5 0 5 C0 5.99 0 6.98 0 8 C-0.66 7.67 -1.32 7.34 -2 7 C-2.12375 6.38125 -2.2475 5.7625 -2.375 5.125 C-3.19821471 2.32606997 -4.60184644 1.54719585 -7 0 C-4.24438552 -1.37780724 -2.90228766 -0.92023755 0 0 Z " fill="#E6AF02" transform="translate(1189,661)"/>
<path d="M0 0 C1.32 0.99 2.64 1.98 4 3 C1.875 5.0625 1.875 5.0625 -1 7 C-4.3125 6.75 -4.3125 6.75 -7 6 C-7.33 5.01 -7.66 4.02 -8 3 C-6.865625 2.690625 -5.73125 2.38125 -4.5625 2.0625 C-1.21224901 1.37075469 -1.21224901 1.37075469 0 0 Z " fill="#D19E02" transform="translate(1124,673)"/>
<path d="M0 0 C3.96 0 7.92 0 12 0 C12 0.99 12 1.98 12 3 C8.04 3 4.08 3 0 3 C0 2.01 0 1.02 0 0 Z " fill="#EFAC00" transform="translate(906,663)"/>
<path d="M0 0 C0 2.97 0 5.94 0 9 C-1.32 9 -2.64 9 -4 9 C-4 6.36 -4 3.72 -4 1 C-2 0 -2 0 0 0 Z " fill="#ECB002" transform="translate(1129,665)"/>
<path d="M0 0 C4.875 0.875 4.875 0.875 6 2 C5.6875 5.5 5.6875 5.5 5 9 C4.01 9.495 4.01 9.495 3 10 C3 9.01 3 8.02 3 7 C2.34 6.67 1.68 6.34 1 6 C0.375 2.9375 0.375 2.9375 0 0 Z " fill="#E4AF02" transform="translate(790,669)"/>
<path d="M0 0 C0.33 0 0.66 0 1 0 C1 4.29 1 8.58 1 13 C-1 9 -1 9 -1 6 C-3.31 6 -5.62 6 -8 6 C-8 5.34 -8 4.68 -8 4 C-6.865625 3.71125 -5.73125 3.4225 -4.5625 3.125 C-3.386875 2.75375 -2.21125 2.3825 -1 2 C-0.67 1.34 -0.34 0.68 0 0 Z " fill="#F4BE01" transform="translate(946,664)"/>
<path d="M0 0 C1.60031344 3.20062687 0.03173691 5.72271806 -1 9 C-1.99 8.67 -2.98 8.34 -4 8 C-4 5.69 -4 3.38 -4 1 C-2.68 0.67 -1.36 0.34 0 0 Z " fill="#E5AF02" transform="translate(1112,665)"/>
<path d="M0 0 C0.598125 0.226875 1.19625 0.45375 1.8125 0.6875 C1.4825 1.6775 1.1525 2.6675 0.8125 3.6875 C-0.5075 3.6875 -1.8275 3.6875 -3.1875 3.6875 C-3.5175 7.6475 -3.8475 11.6075 -4.1875 15.6875 C-4.5175 15.6875 -4.8475 15.6875 -5.1875 15.6875 C-5.2685206 13.58396505 -5.32669907 11.47954048 -5.375 9.375 C-5.40980469 8.20324219 -5.44460938 7.03148437 -5.48046875 5.82421875 C-5.1875 2.6875 -5.1875 2.6875 -3.8125 0.75 C-2.1875 -0.3125 -2.1875 -0.3125 0 0 Z " fill="#181202" transform="translate(702.1875,663.3125)"/>
<path d="M0 0 C1.41569064 -0.08167446 2.83276805 -0.13949698 4.25 -0.1875 C5.43335938 -0.23970703 5.43335938 -0.23970703 6.640625 -0.29296875 C9 0 9 0 13 3 C8.71 3 4.42 3 0 3 C0 2.01 0 1.02 0 0 Z " fill="#DEA701" transform="translate(636,585)"/>
<path d="M0 0 C-0.33 0.99 -0.66 1.98 -1 3 C-1.66 3 -2.32 3 -3 3 C-3.2475 3.598125 -3.495 4.19625 -3.75 4.8125 C-5.17638679 7.30867688 -6.68758584 8.33795232 -9 10 C-9.66 10.99 -10.32 11.98 -11 13 C-11 9 -11 9 -9.1015625 6.640625 C-7.87566406 5.45726562 -7.87566406 5.45726562 -6.625 4.25 C-5.81289062 3.45078125 -5.00078125 2.6515625 -4.1640625 1.828125 C-2 0 -2 0 0 0 Z " fill="#D5A003" transform="translate(1260,394)"/>
<path d="M0 0 C0.33 0 0.66 0 1 0 C1 3.63 1 7.26 1 11 C0.01 11 -0.98 11 -2 11 C-2 8.03 -2 5.06 -2 2 C-1.34 2 -0.68 2 0 2 C0 1.34 0 0.68 0 0 Z " fill="#F8C203" transform="translate(1290,668)"/>
<path d="M0 0 C-0.33 0.99 -0.66 1.98 -1 3 C-1.78375 3.144375 -2.5675 3.28875 -3.375 3.4375 C-5.96421018 3.87798925 -5.96421018 3.87798925 -8 5 C-8.66 4.67 -9.32 4.34 -10 4 C-7.53453745 -1.4592385 -5.69047474 -1.11335375 0 0 Z " fill="#E5AA07" transform="translate(705,661)"/>
<path d="M0 0 C0.99 0 1.98 0 3 0 C3.25 2.3125 3.25 2.3125 3 5 C1.1875 6.8125 1.1875 6.8125 -1 8 C-1.99 8 -2.98 8 -4 8 C-4 7.01 -4 6.02 -4 5 C-2.68 5 -1.36 5 0 5 C0 3.35 0 1.7 0 0 Z " fill="#FCC503" transform="translate(1206,655)"/>
<path d="M0 0 C2.31 0 4.62 0 7 0 C7.33 1.32 7.66 2.64 8 4 C5.36 3.67 2.72 3.34 0 3 C0 2.01 0 1.02 0 0 Z " fill="#190F00" transform="translate(936,663)"/>
<path d="M0 0 C1.65 0 3.3 0 5 0 C4.34 1.98 3.68 3.96 3 6 C1.68 6 0.36 6 -1 6 C-0.67 4.02 -0.34 2.04 0 0 Z " fill="#D6A101" transform="translate(736,660)"/>
<path d="M0 0 C2.1875 1.4375 2.1875 1.4375 4 3 C3.67 4.65 3.34 6.3 3 8 C2.34 8 1.68 8 1 8 C0.566875 6.824375 0.566875 6.824375 0.125 5.625 C-0.84912254 2.90328368 -0.84912254 2.90328368 -3 1 C-2.01 0.67 -1.02 0.34 0 0 Z " fill="#E8AB04" transform="translate(1240,660)"/>
<path d="M0 0 C1.32 1.32 2.64 2.64 4 4 C3.67 4.99 3.34 5.98 3 7 C1.35 6.67 -0.3 6.34 -2 6 C-2 4 -2 4 0 2 C0 1.34 0 0.68 0 0 Z " fill="#DEA80A" transform="translate(730,673)"/>
<path d="M0 0 C0.763125 0.0825 1.52625 0.165 2.3125 0.25 C1.9825 1.57 1.6525 2.89 1.3125 4.25 C-0.9975 4.25 -3.3075 4.25 -5.6875 4.25 C-3.34903846 0.31153846 -3.34903846 0.31153846 0 0 Z " fill="#D79901" transform="translate(1151.6875,675.75)"/>
<path d="M0 0 C-0.66 1.32 -1.32 2.64 -2 4 C-3.65 3.67 -5.3 3.34 -7 3 C-6.67 2.01 -6.34 1.02 -6 0 C-3.42525708 -0.99667468 -2.51072708 -1.25536354 0 0 Z " fill="#2C1C01" transform="translate(792,673)"/>
<path d="M0 0 C2.97 0.495 2.97 0.495 6 1 C6 1.99 6 2.98 6 4 C3.39417629 4.93065133 2.35801776 5.14917407 -0.25 4.0625 C-0.8275 3.711875 -1.405 3.36125 -2 3 C-1.34 2.01 -0.68 1.02 0 0 Z " fill="#C48E01" transform="translate(786,667)"/>
<path d="M0 0 C-0.99 0.99 -1.98 1.98 -3 3 C-4.98 2.34 -6.96 1.68 -9 1 C-9 0.34 -9 -0.32 -9 -1 C-5.22102349 -2.0497157 -3.35080929 -2.10976881 0 0 Z " fill="#E4AB00" transform="translate(795,662)"/>
<path d="M0 0 C2 0.25 2 0.25 4 1 C4.33 1.99 4.66 2.98 5 4 C3.68 4.33 2.36 4.66 1 5 C0.34 3.68 -0.32 2.36 -1 1 C-0.67 0.67 -0.34 0.34 0 0 Z " fill="#E5B106" transform="translate(782,675)"/>
<path d="M0 0 C0.33 0 0.66 0 1 0 C1 3.3 1 6.6 1 10 C0.01 10 -0.98 10 -2 10 C-2.22036864 6.14354879 -1.60355101 3.50776784 0 0 Z " fill="#F3B501" transform="translate(696,669)"/>
<path d="M0 0 C2.31 0.66 4.62 1.32 7 2 C7 2.33 7 2.66 7 3 C4.69 3.66 2.38 4.32 0 5 C-0.66 4.01 -1.32 3.02 -2 2 C-1.34 1.34 -0.68 0.68 0 0 Z " fill="#E3A904" transform="translate(934,660)"/>
<path d="M0 0 C2.64 0 5.28 0 8 0 C8 0.99 8 1.98 8 3 C5.125 3.1875 5.125 3.1875 2 3 C1.34 2.01 0.68 1.02 0 0 Z " fill="#E9B404" transform="translate(628,585)"/>
<path d="M0 0 C0.66 0 1.32 0 2 0 C2.33 1.98 2.66 3.96 3 6 C1.68 6 0.36 6 -1 6 C-0.67 4.02 -0.34 2.04 0 0 Z " fill="#EDB303" transform="translate(728,670)"/>
<path d="M0 0 C1.65 0 3.3 0 5 0 C4.25 4.75 4.25 4.75 2 7 C1.34 4.69 0.68 2.38 0 0 Z " fill="#D49A04" transform="translate(724,667)"/>
<path d="M0 0 C2.64 0.33 5.28 0.66 8 1 C8.33 1.99 8.66 2.98 9 4 C6.36 3.67 3.72 3.34 1 3 C0.67 2.01 0.34 1.02 0 0 Z " fill="#F0B501" transform="translate(753,667)"/>
<path d="M0 0 C0.625 1.8125 0.625 1.8125 1 4 C0.01 5.485 0.01 5.485 -1 7 C-1.38499891 8.65549531 -1.72793135 10.3222433 -2 12 C-2.33 12 -2.66 12 -3 12 C-3.2954439 6.97745369 -2.98514628 4.10457614 0 0 Z " fill="#C08F01" transform="translate(941,588)"/>
<path d="M0 0 C0.66 0 1.32 0 2 0 C2.33 3.3 2.66 6.6 3 10 C-0.16130459 5.78492722 -0.3367697 4.93928888 0 0 Z " fill="#C49604" transform="translate(750,667)"/>
<path d="M0 0 C0 0.66 0 1.32 0 2 C-0.66 2 -1.32 2 -2 2 C-2 2.66 -2 3.32 -2 4 C-3.32 4 -4.64 4 -6 4 C-6 3.01 -6 2.02 -6 1 C-4 0 -4 0 0 0 Z " fill="#0F0900" transform="translate(1184,663)"/>
<path d="M0 0 C1.65 0 3.3 0 5 0 C4.67 1.65 4.34 3.3 4 5 C2.35 4.67 0.7 4.34 -1 4 C-0.67 2.68 -0.34 1.36 0 0 Z " fill="#231400" transform="translate(786,663)"/>
<path d="M0 0 C2.64 0.66 5.28 1.32 8 2 C5.42786866 3.61949011 4.32330841 4.04408751 1.25 3.625 C0.5075 3.41875 -0.235 3.2125 -1 3 C-0.67 2.01 -0.34 1.02 0 0 Z " fill="#EAB005" transform="translate(991,660)"/>
<path d="M0 0 C1.32 0 2.64 0 4 0 C4 1.32 4 2.64 4 4 C2.35 4 0.7 4 -1 4 C-0.67 2.68 -0.34 1.36 0 0 Z " fill="#E5A801" transform="translate(802,555)"/>
<path d="M0 0 C0.99 0.99 1.98 1.98 3 3 C2.67 3.66 2.34 4.32 2 5 C-0.475 4.01 -0.475 4.01 -3 3 C-3 2.34 -3 1.68 -3 1 C-2.01 0.67 -1.02 0.34 0 0 Z " fill="#E7B60A" transform="translate(1177,674)"/>
<path d="M0 0 C0.99 0.33 1.98 0.66 3 1 C3 2.65 3 4.3 3 6 C1.02 5.34 -0.96 4.68 -3 4 C-2.01 3.67 -1.02 3.34 0 3 C0 2.01 0 1.02 0 0 Z " fill="#FABF03" transform="translate(1272,665)"/>
<path d="M0 0 C1.32 0 2.64 0 4 0 C4 1.98 4 3.96 4 6 C3.34 6 2.68 6 2 6 C1.34 5.34 0.68 4.68 0 4 C0 2.68 0 1.36 0 0 Z " fill="#EBB304" transform="translate(766,665)"/>
<path d="M0 0 C1.65 0 3.3 0 5 0 C5 0.99 5 1.98 5 3 C3.02 3 1.04 3 -1 3 C-0.67 2.01 -0.34 1.02 0 0 Z " fill="#F4BD07" transform="translate(967,660)"/>
</svg>
