<svg xmlns="http://www.w3.org/2000/svg" viewBox="0 0 60 40"><rect width="60" height="40" fill="#00008b"/><g transform="scale(.45)"><rect width="60" height="40" fill="#012169"/><path stroke="#fff" stroke-width="8" d="M0 0l60 40M60 0L0 40"/><path stroke="#c8102e" stroke-width="4" d="M0 0l60 40M60 0L0 40"/><path stroke="#fff" stroke-width="12" d="M30 0v40M0 20h60"/><path stroke="#c8102e" stroke-width="7" d="M30 0v40M0 20h60"/></g><g fill="#fff"><path d="M19 26l1.4 3 3.3.3-2.5 2.2.8 3.2-3-1.8-3 1.8.8-3.2-2.5-2.2 3.3-.3z"/><circle cx="43" cy="10" r="2"/><circle cx="49" cy="20" r="1.7"/><circle cx="41" cy="29" r="1.8"/><circle cx="52" cy="33" r="1.5"/></g></svg>