<svg xmlns="http://www.w3.org/2000/svg" viewBox="0 0 60 40">
  <rect width="60" height="20" fill="#0038a8"/>
  <rect y="20" width="60" height="20" fill="#ce1126"/>
  <path fill="#fff" d="M0 0 L26 20 L0 40 Z"/>
  <circle cx="10" cy="20" r="4.2" fill="#fcd116"/>
  <g fill="#fcd116" stroke="#fcd116" stroke-width="1.2" stroke-linecap="round">
    <path d="M10 13.5 V16.2"/>
    <path d="M10 23.8 V26.5"/>
    <path d="M3.5 20 H6.2"/>
    <path d="M13.8 20 H16.5"/>
    <path d="M5.4 15.4 L7.3 17.3"/>
    <path d="M12.7 22.7 L14.6 24.6"/>
    <path d="M14.6 15.4 L12.7 17.3"/>
    <path d="M7.3 22.7 L5.4 24.6"/>
  </g>
  <path fill="#fcd116" d="M8.2 8.5l1 1.1.2 1.5-1.2.8-1.2-.8.2-1.5z"/>
  <path fill="#fcd116" d="M8.2 29.5l1 1.1.2 1.5-1.2.8-1.2-.8.2-1.5z"/>
  <path fill="#fcd116" d="M18.5 19l1 1.1.2 1.5-1.2.8-1.2-.8.2-1.5z"/>
</svg>
